<?xml version="1.0" encoding="UTF-8"?>
<svg xmlns="http://www.w3.org/2000/svg" width="367" height="37">
   <defs>
      <style type="text/css">
    @namespace "http://www.w3.org/2000/svg";
    .line                 {fill: none; stroke: #332200; stroke-width: 1;}
    .bold-line            {stroke: #140E00; shape-rendering: crispEdges; stroke-width: 2;}
    .thin-line            {stroke: #1F1400; shape-rendering: crispEdges}
    .filled               {fill: #332200; stroke: none;}
    text.terminal         {font-family: Verdana, Sans-serif;
                            font-size: 12px;
                            fill: #140E00;
                            font-weight: bold;
                          }
    text.nonterminal      {font-family: Verdana, Sans-serif;
                            font-size: 12px;
                            fill: #1A1100;
                            font-weight: normal;
                          }
    text.regexp           {font-family: Verdana, Sans-serif;
                            font-size: 12px;
                            fill: #1F1400;
                            font-weight: normal;
                          }
    rect, circle, polygon {fill: #332200; stroke: #332200;}
    rect.terminal         {fill: #FFC34D; stroke: #332200; stroke-width: 1;}
    rect.nonterminal      {fill: #FFDF9E; stroke: #332200; stroke-width: 1;}
    rect.text             {fill: none; stroke: none;}
    polygon.regexp        {fill: #FFECC7; stroke: #332200; stroke-width: 1;}
  </style>
   </defs>
   <polygon points="9 17 1 13 1 21"/>
   <polygon points="17 17 9 13 9 21"/>
   <a xmlns:xlink="http://www.w3.org/1999/xlink"
      xlink:href="#case_label_list"
      xlink:title="case_label_list">
      <rect x="31" y="3" width="114" height="32"/>
      <rect x="29" y="1" width="114" height="32" class="nonterminal"/>
      <text class="nonterminal" x="39" y="21">case_label_list</text>
   </a>
   <rect x="165" y="3" width="24" height="32" rx="10"/>
   <rect x="163"
         y="1"
         width="24"
         height="32"
         class="terminal"
         rx="10"/>
   <text class="terminal" x="173" y="21">:</text>
   <a xmlns:xlink="http://www.w3.org/1999/xlink"
      xlink:href="#statement"
      xlink:title="statement">
      <rect x="209" y="3" width="86" height="32"/>
      <rect x="207" y="1" width="86" height="32" class="nonterminal"/>
      <text class="nonterminal" x="217" y="21">statement</text>
   </a>
   <rect x="315" y="3" width="24" height="32" rx="10"/>
   <rect x="313"
         y="1"
         width="24"
         height="32"
         class="terminal"
         rx="10"/>
   <text class="terminal" x="323" y="21">;</text>
   <path class="line"
         d="m17 17 h2 m0 0 h10 m114 0 h10 m0 0 h10 m24 0 h10 m0 0 h10 m86 0 h10 m0 0 h10 m24 0 h10 m3 0 h-3"/>
   <polygon points="357 17 365 13 365 21"/>
   <polygon points="357 17 349 13 349 21"/>
</svg>
