<?xml version="1.0" encoding="UTF-8"?>
<svg xmlns="http://www.w3.org/2000/svg" width="545" height="201">
   <defs>
      <style type="text/css">
    @namespace "http://www.w3.org/2000/svg";
    .line                 {fill: none; stroke: #332200; stroke-width: 1;}
    .bold-line            {stroke: #140E00; shape-rendering: crispEdges; stroke-width: 2;}
    .thin-line            {stroke: #1F1400; shape-rendering: crispEdges}
    .filled               {fill: #332200; stroke: none;}
    text.terminal         {font-family: Verdana, Sans-serif;
                            font-size: 12px;
                            fill: #140E00;
                            font-weight: bold;
                          }
    text.nonterminal      {font-family: Verdana, Sans-serif;
                            font-size: 12px;
                            fill: #1A1100;
                            font-weight: normal;
                          }
    text.regexp           {font-family: Verdana, Sans-serif;
                            font-size: 12px;
                            fill: #1F1400;
                            font-weight: normal;
                          }
    rect, circle, polygon {fill: #332200; stroke: #332200;}
    rect.terminal         {fill: #FFC34D; stroke: #332200; stroke-width: 1;}
    rect.nonterminal      {fill: #FFDF9E; stroke: #332200; stroke-width: 1;}
    rect.text             {fill: none; stroke: none;}
    polygon.regexp        {fill: #FFECC7; stroke: #332200; stroke-width: 1;}
  </style>
   </defs>
   <polygon points="9 61 1 57 1 65"/>
   <polygon points="17 61 9 57 9 65"/>
   <rect x="91" y="79" width="42" height="32" rx="10"/>
   <rect x="89"
         y="77"
         width="42"
         height="32"
         class="terminal"
         rx="10"/>
   <text class="terminal" x="99" y="97">var</text>
   <a xmlns:xlink="http://www.w3.org/1999/xlink"
      xlink:href="#identifier"
      xlink:title="identifier">
      <rect x="193" y="47" width="76" height="32"/>
      <rect x="191" y="45" width="76" height="32" class="nonterminal"/>
      <text class="nonterminal" x="201" y="65">identifier</text>
   </a>
   <rect x="193" y="3" width="24" height="32" rx="10"/>
   <rect x="191"
         y="1"
         width="24"
         height="32"
         class="terminal"
         rx="10"/>
   <text class="terminal" x="201" y="21">,</text>
   <rect x="71" y="123" width="74" height="32" rx="10"/>
   <rect x="69"
         y="121"
         width="74"
         height="32"
         class="terminal"
         rx="10"/>
   <text class="terminal" x="79" y="141">function</text>
   <a xmlns:xlink="http://www.w3.org/1999/xlink"
      xlink:href="#identifier"
      xlink:title="identifier">
      <rect x="165" y="123" width="76" height="32"/>
      <rect x="163" y="121" width="76" height="32" class="nonterminal"/>
      <text class="nonterminal" x="173" y="141">identifier</text>
   </a>
   <a xmlns:xlink="http://www.w3.org/1999/xlink"
      xlink:href="#parameters"
      xlink:title="parameters">
      <rect x="261" y="123" width="94" height="32"/>
      <rect x="259" y="121" width="94" height="32" class="nonterminal"/>
      <text class="nonterminal" x="269" y="141">parameters</text>
   </a>
   <rect x="395" y="47" width="24" height="32" rx="10"/>
   <rect x="393"
         y="45"
         width="24"
         height="32"
         class="terminal"
         rx="10"/>
   <text class="terminal" x="403" y="65">:</text>
   <a xmlns:xlink="http://www.w3.org/1999/xlink"
      xlink:href="#typeid"
      xlink:title="typeid">
      <rect x="439" y="47" width="58" height="32"/>
      <rect x="437" y="45" width="58" height="32" class="nonterminal"/>
      <text class="nonterminal" x="447" y="65">typeid</text>
   </a>
   <rect x="51" y="167" width="88" height="32" rx="10"/>
   <rect x="49"
         y="165"
         width="88"
         height="32"
         class="terminal"
         rx="10"/>
   <text class="terminal" x="59" y="185">procedure</text>
   <a xmlns:xlink="http://www.w3.org/1999/xlink"
      xlink:href="#identifier"
      xlink:title="identifier">
      <rect x="159" y="167" width="76" height="32"/>
      <rect x="157" y="165" width="76" height="32" class="nonterminal"/>
      <text class="nonterminal" x="167" y="185">identifier</text>
   </a>
   <a xmlns:xlink="http://www.w3.org/1999/xlink"
      xlink:href="#parameters"
      xlink:title="parameters">
      <rect x="255" y="167" width="94" height="32"/>
      <rect x="253" y="165" width="94" height="32" class="nonterminal"/>
      <text class="nonterminal" x="263" y="185">parameters</text>
   </a>
   <path class="line"
         d="m17 61 h2 m60 0 h10 m0 0 h52 m-82 0 h20 m62 0 h20 m-102 0 q10 0 10 10 m82 0 q0 -10 10 -10 m-92 10 v12 m82 0 v-12 m-82 12 q0 10 10 10 m62 0 q10 0 10 -10 m-72 10 h10 m42 0 h10 m40 -32 h10 m76 0 h10 m-116 0 l20 0 m-1 0 q-9 0 -9 -10 l0 -24 q0 -10 10 -10 m96 44 l20 0 m-20 0 q10 0 10 -10 l0 -24 q0 -10 -10 -10 m-96 0 h10 m24 0 h10 m0 0 h52 m20 44 h66 m-324 0 h20 m304 0 h20 m-344 0 q10 0 10 10 m324 0 q0 -10 10 -10 m-334 10 v56 m324 0 v-56 m-324 56 q0 10 10 10 m304 0 q10 0 10 -10 m-314 10 h10 m74 0 h10 m0 0 h10 m76 0 h10 m0 0 h10 m94 0 h10 m20 -76 h10 m24 0 h10 m0 0 h10 m58 0 h10 m-486 0 h20 m466 0 h20 m-506 0 q10 0 10 10 m486 0 q0 -10 10 -10 m-496 10 v100 m486 0 v-100 m-486 100 q0 10 10 10 m466 0 q10 0 10 -10 m-476 10 h10 m88 0 h10 m0 0 h10 m76 0 h10 m0 0 h10 m94 0 h10 m0 0 h148 m23 -120 h-3"/>
   <polygon points="535 61 543 57 543 65"/>
   <polygon points="535 61 527 57 527 65"/>
</svg>
