<?xml version="1.0" encoding="UTF-8"?>
<svg xmlns="http://www.w3.org/2000/svg" width="709" height="81">
   <defs>
      <style type="text/css">
    @namespace "http://www.w3.org/2000/svg";
    .line                 {fill: none; stroke: #332200; stroke-width: 1;}
    .bold-line            {stroke: #140E00; shape-rendering: crispEdges; stroke-width: 2;}
    .thin-line            {stroke: #1F1400; shape-rendering: crispEdges}
    .filled               {fill: #332200; stroke: none;}
    text.terminal         {font-family: Verdana, Sans-serif;
                            font-size: 12px;
                            fill: #140E00;
                            font-weight: bold;
                          }
    text.nonterminal      {font-family: Verdana, Sans-serif;
                            font-size: 12px;
                            fill: #1A1100;
                            font-weight: normal;
                          }
    text.regexp           {font-family: Verdana, Sans-serif;
                            font-size: 12px;
                            fill: #1F1400;
                            font-weight: normal;
                          }
    rect, circle, polygon {fill: #332200; stroke: #332200;}
    rect.terminal         {fill: #FFC34D; stroke: #332200; stroke-width: 1;}
    rect.nonterminal      {fill: #FFDF9E; stroke: #332200; stroke-width: 1;}
    rect.text             {fill: none; stroke: none;}
    polygon.regexp        {fill: #FFECC7; stroke: #332200; stroke-width: 1;}
  </style>
   </defs>
   <polygon points="9 17 1 13 1 21"/>
   <polygon points="17 17 9 13 9 21"/>
   <rect x="51" y="3" width="28" height="32" rx="10"/>
   <rect x="49"
         y="1"
         width="28"
         height="32"
         class="terminal"
         rx="10"/>
   <text class="terminal" x="59" y="21">if</text>
   <a xmlns:xlink="http://www.w3.org/1999/xlink"
      xlink:href="#expression"
      xlink:title="expression">
      <rect x="99" y="3" width="90" height="32"/>
      <rect x="97" y="1" width="90" height="32" class="nonterminal"/>
      <text class="nonterminal" x="107" y="21">expression</text>
   </a>
   <rect x="209" y="3" width="50" height="32" rx="10"/>
   <rect x="207"
         y="1"
         width="50"
         height="32"
         class="terminal"
         rx="10"/>
   <text class="terminal" x="217" y="21">then</text>
   <a xmlns:xlink="http://www.w3.org/1999/xlink"
      xlink:href="#matched_statement"
      xlink:title="matched_statement">
      <rect x="279" y="3" width="148" height="32"/>
      <rect x="277" y="1" width="148" height="32" class="nonterminal"/>
      <text class="nonterminal" x="287" y="21">matched_statement</text>
   </a>
   <rect x="447" y="3" width="46" height="32" rx="10"/>
   <rect x="445"
         y="1"
         width="46"
         height="32"
         class="terminal"
         rx="10"/>
   <text class="terminal" x="455" y="21">else</text>
   <a xmlns:xlink="http://www.w3.org/1999/xlink"
      xlink:href="#matched_statement"
      xlink:title="matched_statement">
      <rect x="513" y="3" width="148" height="32"/>
      <rect x="511" y="1" width="148" height="32" class="nonterminal"/>
      <text class="nonterminal" x="521" y="21">matched_statement</text>
   </a>
   <a xmlns:xlink="http://www.w3.org/1999/xlink"
      xlink:href="#other_statement"
      xlink:title="other_statement">
      <rect x="51" y="47" width="128" height="32"/>
      <rect x="49" y="45" width="128" height="32" class="nonterminal"/>
      <text class="nonterminal" x="59" y="65">other_statement</text>
   </a>
   <path class="line"
         d="m17 17 h2 m20 0 h10 m28 0 h10 m0 0 h10 m90 0 h10 m0 0 h10 m50 0 h10 m0 0 h10 m148 0 h10 m0 0 h10 m46 0 h10 m0 0 h10 m148 0 h10 m-650 0 h20 m630 0 h20 m-670 0 q10 0 10 10 m650 0 q0 -10 10 -10 m-660 10 v24 m650 0 v-24 m-650 24 q0 10 10 10 m630 0 q10 0 10 -10 m-640 10 h10 m128 0 h10 m0 0 h482 m23 -44 h-3"/>
   <polygon points="699 17 707 13 707 21"/>
   <polygon points="699 17 691 13 691 21"/>
</svg>
