<?xml version="1.0" encoding="UTF-8"?>
<svg xmlns="http://www.w3.org/2000/svg" width="379" height="81">
   <defs>
      <style type="text/css">
    @namespace "http://www.w3.org/2000/svg";
    .line                 {fill: none; stroke: #332200; stroke-width: 1;}
    .bold-line            {stroke: #140E00; shape-rendering: crispEdges; stroke-width: 2;}
    .thin-line            {stroke: #1F1400; shape-rendering: crispEdges}
    .filled               {fill: #332200; stroke: none;}
    text.terminal         {font-family: Verdana, Sans-serif;
                            font-size: 12px;
                            fill: #140E00;
                            font-weight: bold;
                          }
    text.nonterminal      {font-family: Verdana, Sans-serif;
                            font-size: 12px;
                            fill: #1A1100;
                            font-weight: normal;
                          }
    text.regexp           {font-family: Verdana, Sans-serif;
                            font-size: 12px;
                            fill: #1F1400;
                            font-weight: normal;
                          }
    rect, circle, polygon {fill: #332200; stroke: #332200;}
    rect.terminal         {fill: #FFC34D; stroke: #332200; stroke-width: 1;}
    rect.nonterminal      {fill: #FFDF9E; stroke: #332200; stroke-width: 1;}
    rect.text             {fill: none; stroke: none;}
    polygon.regexp        {fill: #FFECC7; stroke: #332200; stroke-width: 1;}
  </style>
   </defs>
   <polygon points="9 61 1 57 1 65"/>
   <polygon points="17 61 9 57 9 65"/>
   <rect x="31" y="47" width="26" height="32" rx="10"/>
   <rect x="29"
         y="45"
         width="26"
         height="32"
         class="terminal"
         rx="10"/>
   <text class="terminal" x="39" y="65">(</text>
   <a xmlns:xlink="http://www.w3.org/1999/xlink"
      xlink:href="#formal_parameter_section"
      xlink:title="formal_parameter_section">
      <rect x="97" y="47" width="188" height="32"/>
      <rect x="95" y="45" width="188" height="32" class="nonterminal"/>
      <text class="nonterminal" x="105" y="65">formal_parameter_section</text>
   </a>
   <rect x="97" y="3" width="24" height="32" rx="10"/>
   <rect x="95"
         y="1"
         width="24"
         height="32"
         class="terminal"
         rx="10"/>
   <text class="terminal" x="105" y="21">;</text>
   <rect x="325" y="47" width="26" height="32" rx="10"/>
   <rect x="323"
         y="45"
         width="26"
         height="32"
         class="terminal"
         rx="10"/>
   <text class="terminal" x="333" y="65">)</text>
   <path class="line"
         d="m17 61 h2 m0 0 h10 m26 0 h10 m20 0 h10 m188 0 h10 m-228 0 l20 0 m-1 0 q-9 0 -9 -10 l0 -24 q0 -10 10 -10 m208 44 l20 0 m-20 0 q10 0 10 -10 l0 -24 q0 -10 -10 -10 m-208 0 h10 m24 0 h10 m0 0 h164 m20 44 h10 m26 0 h10 m3 0 h-3"/>
   <polygon points="369 61 377 57 377 65"/>
   <polygon points="369 61 361 57 361 65"/>
</svg>
