<?xml version="1.0" encoding="UTF-8"?>
<svg xmlns="http://www.w3.org/2000/svg" width="519" height="411">
   <defs>
      <style type="text/css">
    @namespace "http://www.w3.org/2000/svg";
    .line                 {fill: none; stroke: #332200; stroke-width: 1;}
    .bold-line            {stroke: #140E00; shape-rendering: crispEdges; stroke-width: 2;}
    .thin-line            {stroke: #1F1400; shape-rendering: crispEdges}
    .filled               {fill: #332200; stroke: none;}
    text.terminal         {font-family: Verdana, Sans-serif;
                            font-size: 12px;
                            fill: #140E00;
                            font-weight: bold;
                          }
    text.nonterminal      {font-family: Verdana, Sans-serif;
                            font-size: 12px;
                            fill: #1A1100;
                            font-weight: normal;
                          }
    text.regexp           {font-family: Verdana, Sans-serif;
                            font-size: 12px;
                            fill: #1F1400;
                            font-weight: normal;
                          }
    rect, circle, polygon {fill: #332200; stroke: #332200;}
    rect.terminal         {fill: #FFC34D; stroke: #332200; stroke-width: 1;}
    rect.nonterminal      {fill: #FFDF9E; stroke: #332200; stroke-width: 1;}
    rect.text             {fill: none; stroke: none;}
    polygon.regexp        {fill: #FFECC7; stroke: #332200; stroke-width: 1;}
  </style>
   </defs>
   <polygon points="9 17 1 13 1 21"/>
   <polygon points="17 17 9 13 9 21"/>
   <a xmlns:xlink="http://www.w3.org/1999/xlink"
      xlink:href="#variable"
      xlink:title="variable">
      <rect x="51" y="3" width="70" height="32"/>
      <rect x="49" y="1" width="70" height="32" class="nonterminal"/>
      <text class="nonterminal" x="59" y="21">variable</text>
   </a>
   <a xmlns:xlink="http://www.w3.org/1999/xlink"
      xlink:href="#unsigned_integer"
      xlink:title="unsigned_integer">
      <rect x="51" y="47" width="132" height="32"/>
      <rect x="49" y="45" width="132" height="32" class="nonterminal"/>
      <text class="nonterminal" x="59" y="65">unsigned_integer</text>
   </a>
   <a xmlns:xlink="http://www.w3.org/1999/xlink"
      xlink:href="#unsigned_real"
      xlink:title="unsigned_real">
      <rect x="51" y="91" width="110" height="32"/>
      <rect x="49" y="89" width="110" height="32" class="nonterminal"/>
      <text class="nonterminal" x="59" y="109">unsigned_real</text>
   </a>
   <a xmlns:xlink="http://www.w3.org/1999/xlink"
      xlink:href="#string_literal"
      xlink:title="string_literal">
      <rect x="51" y="135" width="100" height="32"/>
      <rect x="49" y="133" width="100" height="32" class="nonterminal"/>
      <text class="nonterminal" x="59" y="153">string_literal</text>
   </a>
   <rect x="51" y="179" width="36" height="32" rx="10"/>
   <rect x="49"
         y="177"
         width="36"
         height="32"
         class="terminal"
         rx="10"/>
   <text class="terminal" x="59" y="197">nil</text>
   <a xmlns:xlink="http://www.w3.org/1999/xlink"
      xlink:href="#funcid"
      xlink:title="funcid">
      <rect x="71" y="223" width="58" height="32"/>
      <rect x="69" y="221" width="58" height="32" class="nonterminal"/>
      <text class="nonterminal" x="79" y="241">funcid</text>
   </a>
   <rect x="149" y="223" width="26" height="32" rx="10"/>
   <rect x="147"
         y="221"
         width="26"
         height="32"
         class="terminal"
         rx="10"/>
   <text class="terminal" x="157" y="241">(</text>
   <a xmlns:xlink="http://www.w3.org/1999/xlink"
      xlink:href="#expression_list"
      xlink:title="expression_list">
      <rect x="195" y="223" width="116" height="32"/>
      <rect x="193" y="221" width="116" height="32" class="nonterminal"/>
      <text class="nonterminal" x="203" y="241">expression_list</text>
   </a>
   <rect x="71" y="267" width="26" height="32" rx="10"/>
   <rect x="69"
         y="265"
         width="26"
         height="32"
         class="terminal"
         rx="10"/>
   <text class="terminal" x="79" y="285">(</text>
   <a xmlns:xlink="http://www.w3.org/1999/xlink"
      xlink:href="#expression"
      xlink:title="expression">
      <rect x="117" y="267" width="90" height="32"/>
      <rect x="115" y="265" width="90" height="32" class="nonterminal"/>
      <text class="nonterminal" x="125" y="285">expression</text>
   </a>
   <rect x="351" y="223" width="26" height="32" rx="10"/>
   <rect x="349"
         y="221"
         width="26"
         height="32"
         class="terminal"
         rx="10"/>
   <text class="terminal" x="359" y="241">)</text>
   <rect x="51" y="333" width="26" height="32" rx="10"/>
   <rect x="49"
         y="331"
         width="26"
         height="32"
         class="terminal"
         rx="10"/>
   <text class="terminal" x="59" y="351">[</text>
   <a xmlns:xlink="http://www.w3.org/1999/xlink"
      xlink:href="#ε"
      xlink:title="ε">
      <rect x="117" y="333" width="26" height="32"/>
      <rect x="115" y="331" width="26" height="32" class="nonterminal"/>
      <text class="nonterminal" x="125" y="351">ε</text>
   </a>
   <a xmlns:xlink="http://www.w3.org/1999/xlink"
      xlink:href="#element"
      xlink:title="element">
      <rect x="117" y="377" width="72" height="32"/>
      <rect x="115" y="375" width="72" height="32" class="nonterminal"/>
      <text class="nonterminal" x="125" y="395">element</text>
   </a>
   <rect x="269" y="333" width="24" height="32" rx="10"/>
   <rect x="267"
         y="331"
         width="24"
         height="32"
         class="terminal"
         rx="10"/>
   <text class="terminal" x="277" y="351">,</text>
   <a xmlns:xlink="http://www.w3.org/1999/xlink"
      xlink:href="#element"
      xlink:title="element">
      <rect x="313" y="333" width="72" height="32"/>
      <rect x="311" y="331" width="72" height="32" class="nonterminal"/>
      <text class="nonterminal" x="321" y="351">element</text>
   </a>
   <rect x="445" y="333" width="26" height="32" rx="10"/>
   <rect x="443"
         y="331"
         width="26"
         height="32"
         class="terminal"
         rx="10"/>
   <text class="terminal" x="453" y="351">]</text>
   <path class="line"
         d="m17 17 h2 m20 0 h10 m70 0 h10 m0 0 h350 m-460 0 h20 m440 0 h20 m-480 0 q10 0 10 10 m460 0 q0 -10 10 -10 m-470 10 v24 m460 0 v-24 m-460 24 q0 10 10 10 m440 0 q10 0 10 -10 m-450 10 h10 m132 0 h10 m0 0 h288 m-450 -10 v20 m460 0 v-20 m-460 20 v24 m460 0 v-24 m-460 24 q0 10 10 10 m440 0 q10 0 10 -10 m-450 10 h10 m110 0 h10 m0 0 h310 m-450 -10 v20 m460 0 v-20 m-460 20 v24 m460 0 v-24 m-460 24 q0 10 10 10 m440 0 q10 0 10 -10 m-450 10 h10 m100 0 h10 m0 0 h320 m-450 -10 v20 m460 0 v-20 m-460 20 v24 m460 0 v-24 m-460 24 q0 10 10 10 m440 0 q10 0 10 -10 m-450 10 h10 m36 0 h10 m0 0 h384 m-450 -10 v20 m460 0 v-20 m-460 20 v24 m460 0 v-24 m-460 24 q0 10 10 10 m440 0 q10 0 10 -10 m-430 10 h10 m58 0 h10 m0 0 h10 m26 0 h10 m0 0 h10 m116 0 h10 m-280 0 h20 m260 0 h20 m-300 0 q10 0 10 10 m280 0 q0 -10 10 -10 m-290 10 v24 m280 0 v-24 m-280 24 q0 10 10 10 m260 0 q10 0 10 -10 m-270 10 h10 m26 0 h10 m0 0 h10 m90 0 h10 m0 0 h104 m20 -44 h10 m26 0 h10 m0 0 h94 m-450 -10 v20 m460 0 v-20 m-460 20 v90 m460 0 v-90 m-460 90 q0 10 10 10 m440 0 q10 0 10 -10 m-450 10 h10 m26 0 h10 m20 0 h10 m26 0 h10 m0 0 h46 m-112 0 h20 m92 0 h20 m-132 0 q10 0 10 10 m112 0 q0 -10 10 -10 m-122 10 v24 m112 0 v-24 m-112 24 q0 10 10 10 m92 0 q10 0 10 -10 m-102 10 h10 m72 0 h10 m60 -44 h10 m24 0 h10 m0 0 h10 m72 0 h10 m-156 0 l20 0 m-1 0 q-9 0 -9 -10 l0 -12 q0 -10 10 -10 m136 32 l20 0 m-20 0 q10 0 10 -10 l0 -12 q0 -10 -10 -10 m-136 0 h10 m0 0 h126 m-176 32 h20 m176 0 h20 m-216 0 q10 0 10 10 m196 0 q0 -10 10 -10 m-206 10 v14 m196 0 v-14 m-196 14 q0 10 10 10 m176 0 q10 0 10 -10 m-186 10 h10 m0 0 h166 m20 -34 h10 m26 0 h10 m23 -330 h-3"/>
   <polygon points="509 17 517 13 517 21"/>
   <polygon points="509 17 501 13 501 21"/>
</svg>
