<?xml version="1.0" encoding="UTF-8"?>
<svg xmlns="http://www.w3.org/2000/svg" width="699" height="81">
   <defs>
      <style type="text/css">
    @namespace "http://www.w3.org/2000/svg";
    .line                 {fill: none; stroke: #332200; stroke-width: 1;}
    .bold-line            {stroke: #140E00; shape-rendering: crispEdges; stroke-width: 2;}
    .thin-line            {stroke: #1F1400; shape-rendering: crispEdges}
    .filled               {fill: #332200; stroke: none;}
    text.terminal         {font-family: Verdana, Sans-serif;
                            font-size: 12px;
                            fill: #140E00;
                            font-weight: bold;
                          }
    text.nonterminal      {font-family: Verdana, Sans-serif;
                            font-size: 12px;
                            fill: #1A1100;
                            font-weight: normal;
                          }
    text.regexp           {font-family: Verdana, Sans-serif;
                            font-size: 12px;
                            fill: #1F1400;
                            font-weight: normal;
                          }
    rect, circle, polygon {fill: #332200; stroke: #332200;}
    rect.terminal         {fill: #FFC34D; stroke: #332200; stroke-width: 1;}
    rect.nonterminal      {fill: #FFDF9E; stroke: #332200; stroke-width: 1;}
    rect.text             {fill: none; stroke: none;}
    polygon.regexp        {fill: #FFECC7; stroke: #332200; stroke-width: 1;}
  </style>
   </defs>
   <polygon points="9 17 1 13 1 21"/>
   <polygon points="17 17 9 13 9 21"/>
   <rect x="51" y="3" width="88" height="32" rx="10"/>
   <rect x="49"
         y="1"
         width="88"
         height="32"
         class="terminal"
         rx="10"/>
   <text class="terminal" x="59" y="21">procedure</text>
   <a xmlns:xlink="http://www.w3.org/1999/xlink"
      xlink:href="#identifier"
      xlink:title="identifier">
      <rect x="159" y="3" width="76" height="32"/>
      <rect x="157" y="1" width="76" height="32" class="nonterminal"/>
      <text class="nonterminal" x="167" y="21">identifier</text>
   </a>
   <a xmlns:xlink="http://www.w3.org/1999/xlink"
      xlink:href="#parameters"
      xlink:title="parameters">
      <rect x="255" y="3" width="94" height="32"/>
      <rect x="253" y="1" width="94" height="32" class="nonterminal"/>
      <text class="nonterminal" x="263" y="21">parameters</text>
   </a>
   <rect x="51" y="47" width="74" height="32" rx="10"/>
   <rect x="49"
         y="45"
         width="74"
         height="32"
         class="terminal"
         rx="10"/>
   <text class="terminal" x="59" y="65">function</text>
   <a xmlns:xlink="http://www.w3.org/1999/xlink"
      xlink:href="#identifier"
      xlink:title="identifier">
      <rect x="145" y="47" width="76" height="32"/>
      <rect x="143" y="45" width="76" height="32" class="nonterminal"/>
      <text class="nonterminal" x="153" y="65">identifier</text>
   </a>
   <a xmlns:xlink="http://www.w3.org/1999/xlink"
      xlink:href="#parameters"
      xlink:title="parameters">
      <rect x="241" y="47" width="94" height="32"/>
      <rect x="239" y="45" width="94" height="32" class="nonterminal"/>
      <text class="nonterminal" x="249" y="65">parameters</text>
   </a>
   <rect x="355" y="47" width="24" height="32" rx="10"/>
   <rect x="353"
         y="45"
         width="24"
         height="32"
         class="terminal"
         rx="10"/>
   <text class="terminal" x="363" y="65">:</text>
   <a xmlns:xlink="http://www.w3.org/1999/xlink"
      xlink:href="#typeid"
      xlink:title="typeid">
      <rect x="399" y="47" width="58" height="32"/>
      <rect x="397" y="45" width="58" height="32" class="nonterminal"/>
      <text class="nonterminal" x="407" y="65">typeid</text>
   </a>
   <rect x="497" y="3" width="24" height="32" rx="10"/>
   <rect x="495"
         y="1"
         width="24"
         height="32"
         class="terminal"
         rx="10"/>
   <text class="terminal" x="505" y="21">;</text>
   <a xmlns:xlink="http://www.w3.org/1999/xlink"
      xlink:href="#block_or_forward"
      xlink:title="block_or_forward">
      <rect x="541" y="3" width="130" height="32"/>
      <rect x="539" y="1" width="130" height="32" class="nonterminal"/>
      <text class="nonterminal" x="549" y="21">block_or_forward</text>
   </a>
   <path class="line"
         d="m17 17 h2 m20 0 h10 m88 0 h10 m0 0 h10 m76 0 h10 m0 0 h10 m94 0 h10 m0 0 h108 m-446 0 h20 m426 0 h20 m-466 0 q10 0 10 10 m446 0 q0 -10 10 -10 m-456 10 v24 m446 0 v-24 m-446 24 q0 10 10 10 m426 0 q10 0 10 -10 m-436 10 h10 m74 0 h10 m0 0 h10 m76 0 h10 m0 0 h10 m94 0 h10 m0 0 h10 m24 0 h10 m0 0 h10 m58 0 h10 m20 -44 h10 m24 0 h10 m0 0 h10 m130 0 h10 m3 0 h-3"/>
   <polygon points="689 17 697 13 697 21"/>
   <polygon points="689 17 681 13 681 21"/>
</svg>
