<?xml version="1.0" encoding="UTF-8"?>
<svg xmlns="http://www.w3.org/2000/svg" width="175" height="213">
   <defs>
      <style type="text/css">
    @namespace "http://www.w3.org/2000/svg";
    .line                 {fill: none; stroke: #332200; stroke-width: 1;}
    .bold-line            {stroke: #140E00; shape-rendering: crispEdges; stroke-width: 2;}
    .thin-line            {stroke: #1F1400; shape-rendering: crispEdges}
    .filled               {fill: #332200; stroke: none;}
    text.terminal         {font-family: Verdana, Sans-serif;
                            font-size: 12px;
                            fill: #140E00;
                            font-weight: bold;
                          }
    text.nonterminal      {font-family: Verdana, Sans-serif;
                            font-size: 12px;
                            fill: #1A1100;
                            font-weight: normal;
                          }
    text.regexp           {font-family: Verdana, Sans-serif;
                            font-size: 12px;
                            fill: #1F1400;
                            font-weight: normal;
                          }
    rect, circle, polygon {fill: #332200; stroke: #332200;}
    rect.terminal         {fill: #FFC34D; stroke: #332200; stroke-width: 1;}
    rect.nonterminal      {fill: #FFDF9E; stroke: #332200; stroke-width: 1;}
    rect.text             {fill: none; stroke: none;}
    polygon.regexp        {fill: #FFECC7; stroke: #332200; stroke-width: 1;}
  </style>
   </defs>
   <polygon points="9 17 1 13 1 21"/>
   <polygon points="17 17 9 13 9 21"/>
   <a xmlns:xlink="http://www.w3.org/1999/xlink"
      xlink:href="#identifier"
      xlink:title="identifier">
      <rect x="51" y="3" width="76" height="32"/>
      <rect x="49" y="1" width="76" height="32" class="nonterminal"/>
      <text class="nonterminal" x="59" y="21">identifier</text>
   </a>
   <rect x="51" y="47" width="56" height="32" rx="10"/>
   <rect x="49"
         y="45"
         width="56"
         height="32"
         class="terminal"
         rx="10"/>
   <text class="terminal" x="59" y="65">write</text>
   <rect x="51" y="91" width="68" height="32" rx="10"/>
   <rect x="49"
         y="89"
         width="68"
         height="32"
         class="terminal"
         rx="10"/>
   <text class="terminal" x="59" y="109">writeln</text>
   <rect x="51" y="135" width="50" height="32" rx="10"/>
   <rect x="49"
         y="133"
         width="50"
         height="32"
         class="terminal"
         rx="10"/>
   <text class="terminal" x="59" y="153">read</text>
   <rect x="51" y="179" width="62" height="32" rx="10"/>
   <rect x="49"
         y="177"
         width="62"
         height="32"
         class="terminal"
         rx="10"/>
   <text class="terminal" x="59" y="197">readln</text>
   <path class="line"
         d="m17 17 h2 m20 0 h10 m76 0 h10 m-116 0 h20 m96 0 h20 m-136 0 q10 0 10 10 m116 0 q0 -10 10 -10 m-126 10 v24 m116 0 v-24 m-116 24 q0 10 10 10 m96 0 q10 0 10 -10 m-106 10 h10 m56 0 h10 m0 0 h20 m-106 -10 v20 m116 0 v-20 m-116 20 v24 m116 0 v-24 m-116 24 q0 10 10 10 m96 0 q10 0 10 -10 m-106 10 h10 m68 0 h10 m0 0 h8 m-106 -10 v20 m116 0 v-20 m-116 20 v24 m116 0 v-24 m-116 24 q0 10 10 10 m96 0 q10 0 10 -10 m-106 10 h10 m50 0 h10 m0 0 h26 m-106 -10 v20 m116 0 v-20 m-116 20 v24 m116 0 v-24 m-116 24 q0 10 10 10 m96 0 q10 0 10 -10 m-106 10 h10 m62 0 h10 m0 0 h14 m23 -176 h-3"/>
   <polygon points="165 17 173 13 173 21"/>
   <polygon points="165 17 157 13 157 21"/>
</svg>
