<?xml version="1.0" encoding="UTF-8"?>
<svg xmlns="http://www.w3.org/2000/svg" width="567" height="37">
   <defs>
      <style type="text/css">
    @namespace "http://www.w3.org/2000/svg";
    .line                 {fill: none; stroke: #332200; stroke-width: 1;}
    .bold-line            {stroke: #140E00; shape-rendering: crispEdges; stroke-width: 2;}
    .thin-line            {stroke: #1F1400; shape-rendering: crispEdges}
    .filled               {fill: #332200; stroke: none;}
    text.terminal         {font-family: Verdana, Sans-serif;
                            font-size: 12px;
                            fill: #140E00;
                            font-weight: bold;
                          }
    text.nonterminal      {font-family: Verdana, Sans-serif;
                            font-size: 12px;
                            fill: #1A1100;
                            font-weight: normal;
                          }
    text.regexp           {font-family: Verdana, Sans-serif;
                            font-size: 12px;
                            fill: #1F1400;
                            font-weight: normal;
                          }
    rect, circle, polygon {fill: #332200; stroke: #332200;}
    rect.terminal         {fill: #FFC34D; stroke: #332200; stroke-width: 1;}
    rect.nonterminal      {fill: #FFDF9E; stroke: #332200; stroke-width: 1;}
    rect.text             {fill: none; stroke: none;}
    polygon.regexp        {fill: #FFECC7; stroke: #332200; stroke-width: 1;}
  </style>
   </defs>
   <polygon points="9 17 1 13 1 21"/>
   <polygon points="17 17 9 13 9 21"/>
   <rect x="31" y="3" width="78" height="32" rx="10"/>
   <rect x="29"
         y="1"
         width="78"
         height="32"
         class="terminal"
         rx="10"/>
   <text class="terminal" x="39" y="21">program</text>
   <a xmlns:xlink="http://www.w3.org/1999/xlink"
      xlink:href="#identifier"
      xlink:title="identifier">
      <rect x="129" y="3" width="76" height="32"/>
      <rect x="127" y="1" width="76" height="32" class="nonterminal"/>
      <text class="nonterminal" x="137" y="21">identifier</text>
   </a>
   <a xmlns:xlink="http://www.w3.org/1999/xlink"
      xlink:href="#program_headingopt"
      xlink:title="program_headingopt">
      <rect x="225" y="3" width="154" height="32"/>
      <rect x="223" y="1" width="154" height="32" class="nonterminal"/>
      <text class="nonterminal" x="233" y="21">program_headingopt</text>
   </a>
   <rect x="399" y="3" width="24" height="32" rx="10"/>
   <rect x="397"
         y="1"
         width="24"
         height="32"
         class="terminal"
         rx="10"/>
   <text class="terminal" x="407" y="21">;</text>
   <a xmlns:xlink="http://www.w3.org/1999/xlink"
      xlink:href="#block"
      xlink:title="block">
      <rect x="443" y="3" width="52" height="32"/>
      <rect x="441" y="1" width="52" height="32" class="nonterminal"/>
      <text class="nonterminal" x="451" y="21">block</text>
   </a>
   <rect x="515" y="3" width="24" height="32" rx="10"/>
   <rect x="513"
         y="1"
         width="24"
         height="32"
         class="terminal"
         rx="10"/>
   <text class="terminal" x="523" y="21">.</text>
   <path class="line"
         d="m17 17 h2 m0 0 h10 m78 0 h10 m0 0 h10 m76 0 h10 m0 0 h10 m154 0 h10 m0 0 h10 m24 0 h10 m0 0 h10 m52 0 h10 m0 0 h10 m24 0 h10 m3 0 h-3"/>
   <polygon points="557 17 565 13 565 21"/>
   <polygon points="557 17 549 13 549 21"/>
</svg>
