<?xml version="1.0" encoding="UTF-8"?>
<svg xmlns="http://www.w3.org/2000/svg" width="327" height="125">
   <defs>
      <style type="text/css">
    @namespace "http://www.w3.org/2000/svg";
    .line                 {fill: none; stroke: #332200; stroke-width: 1;}
    .bold-line            {stroke: #140E00; shape-rendering: crispEdges; stroke-width: 2;}
    .thin-line            {stroke: #1F1400; shape-rendering: crispEdges}
    .filled               {fill: #332200; stroke: none;}
    text.terminal         {font-family: Verdana, Sans-serif;
                            font-size: 12px;
                            fill: #140E00;
                            font-weight: bold;
                          }
    text.nonterminal      {font-family: Verdana, Sans-serif;
                            font-size: 12px;
                            fill: #1A1100;
                            font-weight: normal;
                          }
    text.regexp           {font-family: Verdana, Sans-serif;
                            font-size: 12px;
                            fill: #1F1400;
                            font-weight: normal;
                          }
    rect, circle, polygon {fill: #332200; stroke: #332200;}
    rect.terminal         {fill: #FFC34D; stroke: #332200; stroke-width: 1;}
    rect.nonterminal      {fill: #FFDF9E; stroke: #332200; stroke-width: 1;}
    rect.text             {fill: none; stroke: none;}
    polygon.regexp        {fill: #FFECC7; stroke: #332200; stroke-width: 1;}
  </style>
   </defs>
   <polygon points="9 17 1 13 1 21"/>
   <polygon points="17 17 9 13 9 21"/>
   <a xmlns:xlink="http://www.w3.org/1999/xlink"
      xlink:href="#ε"
      xlink:title="ε">
      <rect x="51" y="3" width="26" height="32"/>
      <rect x="49" y="1" width="26" height="32" class="nonterminal"/>
      <text class="nonterminal" x="59" y="21">ε</text>
   </a>
   <a xmlns:xlink="http://www.w3.org/1999/xlink"
      xlink:href="#identifier"
      xlink:title="identifier">
      <rect x="71" y="91" width="76" height="32"/>
      <rect x="69" y="89" width="76" height="32" class="nonterminal"/>
      <text class="nonterminal" x="79" y="109">identifier</text>
   </a>
   <rect x="71" y="47" width="24" height="32" rx="10"/>
   <rect x="69"
         y="45"
         width="24"
         height="32"
         class="terminal"
         rx="10"/>
   <text class="terminal" x="79" y="65">,</text>
   <rect x="187" y="91" width="24" height="32" rx="10"/>
   <rect x="185"
         y="89"
         width="24"
         height="32"
         class="terminal"
         rx="10"/>
   <text class="terminal" x="195" y="109">:</text>
   <a xmlns:xlink="http://www.w3.org/1999/xlink"
      xlink:href="#type"
      xlink:title="type">
      <rect x="231" y="91" width="48" height="32"/>
      <rect x="229" y="89" width="48" height="32" class="nonterminal"/>
      <text class="nonterminal" x="239" y="109">type</text>
   </a>
   <path class="line"
         d="m17 17 h2 m20 0 h10 m26 0 h10 m0 0 h202 m-268 0 h20 m248 0 h20 m-288 0 q10 0 10 10 m268 0 q0 -10 10 -10 m-278 10 v68 m268 0 v-68 m-268 68 q0 10 10 10 m248 0 q10 0 10 -10 m-238 10 h10 m76 0 h10 m-116 0 l20 0 m-1 0 q-9 0 -9 -10 l0 -24 q0 -10 10 -10 m96 44 l20 0 m-20 0 q10 0 10 -10 l0 -24 q0 -10 -10 -10 m-96 0 h10 m24 0 h10 m0 0 h52 m20 44 h10 m24 0 h10 m0 0 h10 m48 0 h10 m23 -88 h-3"/>
   <polygon points="317 17 325 13 325 21"/>
   <polygon points="317 17 309 13 309 21"/>
</svg>
