<?xml version="1.0" encoding="UTF-8"?>
<svg xmlns="http://www.w3.org/2000/svg" width="441" height="81">
   <defs>
      <style type="text/css">
    @namespace "http://www.w3.org/2000/svg";
    .line                 {fill: none; stroke: #332200; stroke-width: 1;}
    .bold-line            {stroke: #140E00; shape-rendering: crispEdges; stroke-width: 2;}
    .thin-line            {stroke: #1F1400; shape-rendering: crispEdges}
    .filled               {fill: #332200; stroke: none;}
    text.terminal         {font-family: Verdana, Sans-serif;
                            font-size: 12px;
                            fill: #140E00;
                            font-weight: bold;
                          }
    text.nonterminal      {font-family: Verdana, Sans-serif;
                            font-size: 12px;
                            fill: #1A1100;
                            font-weight: normal;
                          }
    text.regexp           {font-family: Verdana, Sans-serif;
                            font-size: 12px;
                            fill: #1F1400;
                            font-weight: normal;
                          }
    rect, circle, polygon {fill: #332200; stroke: #332200;}
    rect.terminal         {fill: #FFC34D; stroke: #332200; stroke-width: 1;}
    rect.nonterminal      {fill: #FFDF9E; stroke: #332200; stroke-width: 1;}
    rect.text             {fill: none; stroke: none;}
    polygon.regexp        {fill: #FFECC7; stroke: #332200; stroke-width: 1;}
  </style>
   </defs>
   <polygon points="9 17 1 13 1 21"/>
   <polygon points="17 17 9 13 9 21"/>
   <a xmlns:xlink="http://www.w3.org/1999/xlink"
      xlink:href="#ε"
      xlink:title="ε">
      <rect x="51" y="3" width="26" height="32"/>
      <rect x="49" y="1" width="26" height="32" class="nonterminal"/>
      <text class="nonterminal" x="59" y="21">ε</text>
   </a>
   <a xmlns:xlink="http://www.w3.org/1999/xlink"
      xlink:href="#case_label_list"
      xlink:title="case_label_list">
      <rect x="51" y="47" width="114" height="32"/>
      <rect x="49" y="45" width="114" height="32" class="nonterminal"/>
      <text class="nonterminal" x="59" y="65">case_label_list</text>
   </a>
   <rect x="185" y="47" width="24" height="32" rx="10"/>
   <rect x="183"
         y="45"
         width="24"
         height="32"
         class="terminal"
         rx="10"/>
   <text class="terminal" x="193" y="65">:</text>
   <rect x="229" y="47" width="26" height="32" rx="10"/>
   <rect x="227"
         y="45"
         width="26"
         height="32"
         class="terminal"
         rx="10"/>
   <text class="terminal" x="237" y="65">(</text>
   <a xmlns:xlink="http://www.w3.org/1999/xlink"
      xlink:href="#field_list"
      xlink:title="field_list">
      <rect x="275" y="47" width="72" height="32"/>
      <rect x="273" y="45" width="72" height="32" class="nonterminal"/>
      <text class="nonterminal" x="283" y="65">field_list</text>
   </a>
   <rect x="367" y="47" width="26" height="32" rx="10"/>
   <rect x="365"
         y="45"
         width="26"
         height="32"
         class="terminal"
         rx="10"/>
   <text class="terminal" x="375" y="65">)</text>
   <path class="line"
         d="m17 17 h2 m20 0 h10 m26 0 h10 m0 0 h316 m-382 0 h20 m362 0 h20 m-402 0 q10 0 10 10 m382 0 q0 -10 10 -10 m-392 10 v24 m382 0 v-24 m-382 24 q0 10 10 10 m362 0 q10 0 10 -10 m-372 10 h10 m114 0 h10 m0 0 h10 m24 0 h10 m0 0 h10 m26 0 h10 m0 0 h10 m72 0 h10 m0 0 h10 m26 0 h10 m23 -44 h-3"/>
   <polygon points="431 17 439 13 439 21"/>
   <polygon points="431 17 423 13 423 21"/>
</svg>
