<?xml version="1.0" encoding="UTF-8"?>
<svg xmlns="http://www.w3.org/2000/svg" width="381" height="81">
   <defs>
      <style type="text/css">
    @namespace "http://www.w3.org/2000/svg";
    .line                 {fill: none; stroke: #332200; stroke-width: 1;}
    .bold-line            {stroke: #140E00; shape-rendering: crispEdges; stroke-width: 2;}
    .thin-line            {stroke: #1F1400; shape-rendering: crispEdges}
    .filled               {fill: #332200; stroke: none;}
    text.terminal         {font-family: Verdana, Sans-serif;
                            font-size: 12px;
                            fill: #140E00;
                            font-weight: bold;
                          }
    text.nonterminal      {font-family: Verdana, Sans-serif;
                            font-size: 12px;
                            fill: #1A1100;
                            font-weight: normal;
                          }
    text.regexp           {font-family: Verdana, Sans-serif;
                            font-size: 12px;
                            fill: #1F1400;
                            font-weight: normal;
                          }
    rect, circle, polygon {fill: #332200; stroke: #332200;}
    rect.terminal         {fill: #FFC34D; stroke: #332200; stroke-width: 1;}
    rect.nonterminal      {fill: #FFDF9E; stroke: #332200; stroke-width: 1;}
    rect.text             {fill: none; stroke: none;}
    polygon.regexp        {fill: #FFECC7; stroke: #332200; stroke-width: 1;}
  </style>
   </defs>
   <polygon points="9 61 1 57 1 65"/>
   <polygon points="17 61 9 57 9 65"/>
   <rect x="31" y="47" width="50" height="32" rx="10"/>
   <rect x="29"
         y="45"
         width="50"
         height="32"
         class="terminal"
         rx="10"/>
   <text class="terminal" x="39" y="65">case</text>
   <a xmlns:xlink="http://www.w3.org/1999/xlink"
      xlink:href="#tag_field"
      xlink:title="tag_field">
      <rect x="101" y="47" width="76" height="32"/>
      <rect x="99" y="45" width="76" height="32" class="nonterminal"/>
      <text class="nonterminal" x="109" y="65">tag_field</text>
   </a>
   <rect x="197" y="47" width="32" height="32" rx="10"/>
   <rect x="195"
         y="45"
         width="32"
         height="32"
         class="terminal"
         rx="10"/>
   <text class="terminal" x="205" y="65">of</text>
   <a xmlns:xlink="http://www.w3.org/1999/xlink"
      xlink:href="#variant"
      xlink:title="variant">
      <rect x="269" y="47" width="64" height="32"/>
      <rect x="267" y="45" width="64" height="32" class="nonterminal"/>
      <text class="nonterminal" x="277" y="65">variant</text>
   </a>
   <rect x="269" y="3" width="24" height="32" rx="10"/>
   <rect x="267"
         y="1"
         width="24"
         height="32"
         class="terminal"
         rx="10"/>
   <text class="terminal" x="277" y="21">;</text>
   <path class="line"
         d="m17 61 h2 m0 0 h10 m50 0 h10 m0 0 h10 m76 0 h10 m0 0 h10 m32 0 h10 m20 0 h10 m64 0 h10 m-104 0 l20 0 m-1 0 q-9 0 -9 -10 l0 -24 q0 -10 10 -10 m84 44 l20 0 m-20 0 q10 0 10 -10 l0 -24 q0 -10 -10 -10 m-84 0 h10 m24 0 h10 m0 0 h40 m23 44 h-3"/>
   <polygon points="371 61 379 57 379 65"/>
   <polygon points="371 61 363 57 363 65"/>
</svg>
