<?xml version="1.0" encoding="UTF-8"?>
<svg xmlns="http://www.w3.org/2000/svg" width="545" height="69">
   <defs>
      <style type="text/css">
    @namespace "http://www.w3.org/2000/svg";
    .line                 {fill: none; stroke: #332200; stroke-width: 1;}
    .bold-line            {stroke: #140E00; shape-rendering: crispEdges; stroke-width: 2;}
    .thin-line            {stroke: #1F1400; shape-rendering: crispEdges}
    .filled               {fill: #332200; stroke: none;}
    text.terminal         {font-family: Verdana, Sans-serif;
                            font-size: 12px;
                            fill: #140E00;
                            font-weight: bold;
                          }
    text.nonterminal      {font-family: Verdana, Sans-serif;
                            font-size: 12px;
                            fill: #1A1100;
                            font-weight: normal;
                          }
    text.regexp           {font-family: Verdana, Sans-serif;
                            font-size: 12px;
                            fill: #1F1400;
                            font-weight: normal;
                          }
    rect, circle, polygon {fill: #332200; stroke: #332200;}
    rect.terminal         {fill: #FFC34D; stroke: #332200; stroke-width: 1;}
    rect.nonterminal      {fill: #FFDF9E; stroke: #332200; stroke-width: 1;}
    rect.text             {fill: none; stroke: none;}
    polygon.regexp        {fill: #FFECC7; stroke: #332200; stroke-width: 1;}
  </style>
   </defs>
   <polygon points="9 33 1 29 1 37"/>
   <polygon points="17 33 9 29 9 37"/>
   <rect x="51" y="19" width="42" height="32" rx="10"/>
   <rect x="49"
         y="17"
         width="42"
         height="32"
         class="terminal"
         rx="10"/>
   <text class="terminal" x="59" y="37">var</text>
   <a xmlns:xlink="http://www.w3.org/1999/xlink"
      xlink:href="#variableid_list"
      xlink:title="variableid_list">
      <rect x="133" y="19" width="108" height="32"/>
      <rect x="131" y="17" width="108" height="32" class="nonterminal"/>
      <text class="nonterminal" x="141" y="37">variableid_list</text>
   </a>
   <rect x="261" y="19" width="24" height="32" rx="10"/>
   <rect x="259"
         y="17"
         width="24"
         height="32"
         class="terminal"
         rx="10"/>
   <text class="terminal" x="269" y="37">:</text>
   <a xmlns:xlink="http://www.w3.org/1999/xlink"
      xlink:href="#type"
      xlink:title="type">
      <rect x="305" y="19" width="48" height="32"/>
      <rect x="303" y="17" width="48" height="32" class="nonterminal"/>
      <text class="nonterminal" x="313" y="37">type</text>
   </a>
   <rect x="373" y="19" width="24" height="32" rx="10"/>
   <rect x="371"
         y="17"
         width="24"
         height="32"
         class="terminal"
         rx="10"/>
   <text class="terminal" x="381" y="37">;</text>
   <a xmlns:xlink="http://www.w3.org/1999/xlink"
      xlink:href="#block4"
      xlink:title="block4">
      <rect x="457" y="19" width="60" height="32"/>
      <rect x="455" y="17" width="60" height="32" class="nonterminal"/>
      <text class="nonterminal" x="465" y="37">block4</text>
   </a>
   <path class="line"
         d="m17 33 h2 m20 0 h10 m42 0 h10 m20 0 h10 m108 0 h10 m0 0 h10 m24 0 h10 m0 0 h10 m48 0 h10 m0 0 h10 m24 0 h10 m-304 0 l20 0 m-1 0 q-9 0 -9 -10 l0 -12 q0 -10 10 -10 m284 32 l20 0 m-20 0 q10 0 10 -10 l0 -12 q0 -10 -10 -10 m-284 0 h10 m0 0 h274 m-386 32 h20 m386 0 h20 m-426 0 q10 0 10 10 m406 0 q0 -10 10 -10 m-416 10 v14 m406 0 v-14 m-406 14 q0 10 10 10 m386 0 q10 0 10 -10 m-396 10 h10 m0 0 h376 m20 -34 h10 m60 0 h10 m3 0 h-3"/>
   <polygon points="535 33 543 29 543 37"/>
   <polygon points="535 33 527 29 527 37"/>
</svg>
