<?xml version="1.0" encoding="UTF-8"?>
<svg xmlns="http://www.w3.org/2000/svg" width="435" height="157">
   <defs>
      <style type="text/css">
    @namespace "http://www.w3.org/2000/svg";
    .line                 {fill: none; stroke: #332200; stroke-width: 1;}
    .bold-line            {stroke: #140E00; shape-rendering: crispEdges; stroke-width: 2;}
    .thin-line            {stroke: #1F1400; shape-rendering: crispEdges}
    .filled               {fill: #332200; stroke: none;}
    text.terminal         {font-family: Verdana, Sans-serif;
                            font-size: 12px;
                            fill: #140E00;
                            font-weight: bold;
                          }
    text.nonterminal      {font-family: Verdana, Sans-serif;
                            font-size: 12px;
                            fill: #1A1100;
                            font-weight: normal;
                          }
    text.regexp           {font-family: Verdana, Sans-serif;
                            font-size: 12px;
                            fill: #1F1400;
                            font-weight: normal;
                          }
    rect, circle, polygon {fill: #332200; stroke: #332200;}
    rect.terminal         {fill: #FFC34D; stroke: #332200; stroke-width: 1;}
    rect.nonterminal      {fill: #FFDF9E; stroke: #332200; stroke-width: 1;}
    rect.text             {fill: none; stroke: none;}
    polygon.regexp        {fill: #FFECC7; stroke: #332200; stroke-width: 1;}
  </style>
   </defs>
   <polygon points="9 61 1 57 1 65"/>
   <polygon points="17 61 9 57 9 65"/>
   <a xmlns:xlink="http://www.w3.org/1999/xlink"
      xlink:href="#record_field"
      xlink:title="record_field">
      <rect x="71" y="47" width="94" height="32"/>
      <rect x="69" y="45" width="94" height="32" class="nonterminal"/>
      <text class="nonterminal" x="79" y="65">record_field</text>
   </a>
   <rect x="71" y="3" width="24" height="32" rx="10"/>
   <rect x="69"
         y="1"
         width="24"
         height="32"
         class="terminal"
         rx="10"/>
   <text class="terminal" x="79" y="21">;</text>
   <rect x="225" y="79" width="24" height="32" rx="10"/>
   <rect x="223"
         y="77"
         width="24"
         height="32"
         class="terminal"
         rx="10"/>
   <text class="terminal" x="233" y="97">;</text>
   <a xmlns:xlink="http://www.w3.org/1999/xlink"
      xlink:href="#variant_part"
      xlink:title="variant_part">
      <rect x="269" y="79" width="98" height="32"/>
      <rect x="267" y="77" width="98" height="32" class="nonterminal"/>
      <text class="nonterminal" x="277" y="97">variant_part</text>
   </a>
   <a xmlns:xlink="http://www.w3.org/1999/xlink"
      xlink:href="#variant_part"
      xlink:title="variant_part">
      <rect x="51" y="123" width="98" height="32"/>
      <rect x="49" y="121" width="98" height="32" class="nonterminal"/>
      <text class="nonterminal" x="59" y="141">variant_part</text>
   </a>
   <path class="line"
         d="m17 61 h2 m40 0 h10 m94 0 h10 m-134 0 l20 0 m-1 0 q-9 0 -9 -10 l0 -24 q0 -10 10 -10 m114 44 l20 0 m-20 0 q10 0 10 -10 l0 -24 q0 -10 -10 -10 m-114 0 h10 m24 0 h10 m0 0 h70 m40 44 h10 m0 0 h152 m-182 0 h20 m162 0 h20 m-202 0 q10 0 10 10 m182 0 q0 -10 10 -10 m-192 10 v12 m182 0 v-12 m-182 12 q0 10 10 10 m162 0 q10 0 10 -10 m-172 10 h10 m24 0 h10 m0 0 h10 m98 0 h10 m-356 -32 h20 m356 0 h20 m-396 0 q10 0 10 10 m376 0 q0 -10 10 -10 m-386 10 v56 m376 0 v-56 m-376 56 q0 10 10 10 m356 0 q10 0 10 -10 m-366 10 h10 m98 0 h10 m0 0 h238 m23 -76 h-3"/>
   <polygon points="425 61 433 57 433 65"/>
   <polygon points="425 61 417 57 417 65"/>
</svg>
