<?xml version="1.0" encoding="UTF-8"?>
<svg xmlns="http://www.w3.org/2000/svg" width="147" height="257">
   <defs>
      <style type="text/css">
    @namespace "http://www.w3.org/2000/svg";
    .line                 {fill: none; stroke: #332200; stroke-width: 1;}
    .bold-line            {stroke: #140E00; shape-rendering: crispEdges; stroke-width: 2;}
    .thin-line            {stroke: #1F1400; shape-rendering: crispEdges}
    .filled               {fill: #332200; stroke: none;}
    text.terminal         {font-family: Verdana, Sans-serif;
                            font-size: 12px;
                            fill: #140E00;
                            font-weight: bold;
                          }
    text.nonterminal      {font-family: Verdana, Sans-serif;
                            font-size: 12px;
                            fill: #1A1100;
                            font-weight: normal;
                          }
    text.regexp           {font-family: Verdana, Sans-serif;
                            font-size: 12px;
                            fill: #1F1400;
                            font-weight: normal;
                          }
    rect, circle, polygon {fill: #332200; stroke: #332200;}
    rect.terminal         {fill: #FFC34D; stroke: #332200; stroke-width: 1;}
    rect.nonterminal      {fill: #FFDF9E; stroke: #332200; stroke-width: 1;}
    rect.text             {fill: none; stroke: none;}
    polygon.regexp        {fill: #FFECC7; stroke: #332200; stroke-width: 1;}
  </style>
   </defs>
   <polygon points="9 17 1 13 1 21"/>
   <polygon points="17 17 9 13 9 21"/>
   <rect x="51" y="3" width="28" height="32" rx="10"/>
   <rect x="49"
         y="1"
         width="28"
         height="32"
         class="terminal"
         rx="10"/>
   <text class="terminal" x="59" y="21">*</text>
   <rect x="51" y="47" width="28" height="32" rx="10"/>
   <rect x="49"
         y="45"
         width="28"
         height="32"
         class="terminal"
         rx="10"/>
   <text class="terminal" x="59" y="65">/</text>
   <rect x="51" y="91" width="40" height="32" rx="10"/>
   <rect x="49"
         y="89"
         width="40"
         height="32"
         class="terminal"
         rx="10"/>
   <text class="terminal" x="59" y="109">div</text>
   <rect x="51" y="135" width="48" height="32" rx="10"/>
   <rect x="49"
         y="133"
         width="48"
         height="32"
         class="terminal"
         rx="10"/>
   <text class="terminal" x="59" y="153">mod</text>
   <rect x="51" y="179" width="44" height="32" rx="10"/>
   <rect x="49"
         y="177"
         width="44"
         height="32"
         class="terminal"
         rx="10"/>
   <text class="terminal" x="59" y="197">and</text>
   <rect x="51" y="223" width="32" height="32" rx="10"/>
   <rect x="49"
         y="221"
         width="32"
         height="32"
         class="terminal"
         rx="10"/>
   <text class="terminal" x="59" y="241">in</text>
   <path class="line"
         d="m17 17 h2 m20 0 h10 m28 0 h10 m0 0 h20 m-88 0 h20 m68 0 h20 m-108 0 q10 0 10 10 m88 0 q0 -10 10 -10 m-98 10 v24 m88 0 v-24 m-88 24 q0 10 10 10 m68 0 q10 0 10 -10 m-78 10 h10 m28 0 h10 m0 0 h20 m-78 -10 v20 m88 0 v-20 m-88 20 v24 m88 0 v-24 m-88 24 q0 10 10 10 m68 0 q10 0 10 -10 m-78 10 h10 m40 0 h10 m0 0 h8 m-78 -10 v20 m88 0 v-20 m-88 20 v24 m88 0 v-24 m-88 24 q0 10 10 10 m68 0 q10 0 10 -10 m-78 10 h10 m48 0 h10 m-78 -10 v20 m88 0 v-20 m-88 20 v24 m88 0 v-24 m-88 24 q0 10 10 10 m68 0 q10 0 10 -10 m-78 10 h10 m44 0 h10 m0 0 h4 m-78 -10 v20 m88 0 v-20 m-88 20 v24 m88 0 v-24 m-88 24 q0 10 10 10 m68 0 q10 0 10 -10 m-78 10 h10 m32 0 h10 m0 0 h16 m23 -220 h-3"/>
   <polygon points="137 17 145 13 145 21"/>
   <polygon points="137 17 129 13 129 21"/>
</svg>
