<?xml version="1.0" encoding="UTF-8"?>
<svg xmlns="http://www.w3.org/2000/svg" width="727" height="607">
   <defs>
      <style type="text/css">
    @namespace "http://www.w3.org/2000/svg";
    .line                 {fill: none; stroke: #332200; stroke-width: 1;}
    .bold-line            {stroke: #140E00; shape-rendering: crispEdges; stroke-width: 2;}
    .thin-line            {stroke: #1F1400; shape-rendering: crispEdges}
    .filled               {fill: #332200; stroke: none;}
    text.terminal         {font-family: Verdana, Sans-serif;
                            font-size: 12px;
                            fill: #140E00;
                            font-weight: bold;
                          }
    text.nonterminal      {font-family: Verdana, Sans-serif;
                            font-size: 12px;
                            fill: #1A1100;
                            font-weight: normal;
                          }
    text.regexp           {font-family: Verdana, Sans-serif;
                            font-size: 12px;
                            fill: #1F1400;
                            font-weight: normal;
                          }
    rect, circle, polygon {fill: #332200; stroke: #332200;}
    rect.terminal         {fill: #FFC34D; stroke: #332200; stroke-width: 1;}
    rect.nonterminal      {fill: #FFDF9E; stroke: #332200; stroke-width: 1;}
    rect.text             {fill: none; stroke: none;}
    polygon.regexp        {fill: #FFECC7; stroke: #332200; stroke-width: 1;}
  </style>
   </defs>
   <polygon points="9 17 1 13 1 21"/>
   <polygon points="17 17 9 13 9 21"/>
   <a xmlns:xlink="http://www.w3.org/1999/xlink"
      xlink:href="#empty"
      xlink:title="empty">
      <rect x="51" y="3" width="60" height="32"/>
      <rect x="49" y="1" width="60" height="32" class="nonterminal"/>
      <text class="nonterminal" x="59" y="21">empty</text>
   </a>
   <a xmlns:xlink="http://www.w3.org/1999/xlink"
      xlink:href="#variable"
      xlink:title="variable">
      <rect x="71" y="47" width="70" height="32"/>
      <rect x="69" y="45" width="70" height="32" class="nonterminal"/>
      <text class="nonterminal" x="79" y="65">variable</text>
   </a>
   <rect x="161" y="47" width="34" height="32" rx="10"/>
   <rect x="159"
         y="45"
         width="34"
         height="32"
         class="terminal"
         rx="10"/>
   <text class="terminal" x="169" y="65">:=</text>
   <rect x="71" y="91" width="64" height="32" rx="10"/>
   <rect x="69"
         y="89"
         width="64"
         height="32"
         class="terminal"
         rx="10"/>
   <text class="terminal" x="79" y="109">repeat</text>
   <a xmlns:xlink="http://www.w3.org/1999/xlink"
      xlink:href="#statement_list"
      xlink:title="statement_list">
      <rect x="155" y="91" width="112" height="32"/>
      <rect x="153" y="89" width="112" height="32" class="nonterminal"/>
      <text class="nonterminal" x="163" y="109">statement_list</text>
   </a>
   <rect x="287" y="91" width="50" height="32" rx="10"/>
   <rect x="285"
         y="89"
         width="50"
         height="32"
         class="terminal"
         rx="10"/>
   <text class="terminal" x="295" y="109">until</text>
   <a xmlns:xlink="http://www.w3.org/1999/xlink"
      xlink:href="#expression"
      xlink:title="expression">
      <rect x="377" y="47" width="90" height="32"/>
      <rect x="375" y="45" width="90" height="32" class="nonterminal"/>
      <text class="nonterminal" x="385" y="65">expression</text>
   </a>
   <rect x="71" y="135" width="56" height="32" rx="10"/>
   <rect x="69"
         y="133"
         width="56"
         height="32"
         class="terminal"
         rx="10"/>
   <text class="terminal" x="79" y="153">begin</text>
   <a xmlns:xlink="http://www.w3.org/1999/xlink"
      xlink:href="#statement_list"
      xlink:title="statement_list">
      <rect x="147" y="135" width="112" height="32"/>
      <rect x="145" y="133" width="112" height="32" class="nonterminal"/>
      <text class="nonterminal" x="155" y="153">statement_list</text>
   </a>
   <rect x="71" y="201" width="50" height="32" rx="10"/>
   <rect x="69"
         y="199"
         width="50"
         height="32"
         class="terminal"
         rx="10"/>
   <text class="terminal" x="79" y="219">case</text>
   <a xmlns:xlink="http://www.w3.org/1999/xlink"
      xlink:href="#expression"
      xlink:title="expression">
      <rect x="141" y="201" width="90" height="32"/>
      <rect x="139" y="199" width="90" height="32" class="nonterminal"/>
      <text class="nonterminal" x="149" y="219">expression</text>
   </a>
   <rect x="251" y="201" width="32" height="32" rx="10"/>
   <rect x="249"
         y="199"
         width="32"
         height="32"
         class="terminal"
         rx="10"/>
   <text class="terminal" x="259" y="219">of</text>
   <a xmlns:xlink="http://www.w3.org/1999/xlink"
      xlink:href="#case_element"
      xlink:title="case_element">
      <rect x="323" y="201" width="108" height="32"/>
      <rect x="321" y="199" width="108" height="32" class="nonterminal"/>
      <text class="nonterminal" x="331" y="219">case_element</text>
   </a>
   <a xmlns:xlink="http://www.w3.org/1999/xlink"
      xlink:href="#case_else"
      xlink:title="case_else">
      <rect x="491" y="233" width="84" height="32"/>
      <rect x="489" y="231" width="84" height="32" class="nonterminal"/>
      <text class="nonterminal" x="499" y="251">case_else</text>
   </a>
   <rect x="635" y="135" width="44" height="32" rx="10"/>
   <rect x="633"
         y="133"
         width="44"
         height="32"
         class="terminal"
         rx="10"/>
   <text class="terminal" x="643" y="153">end</text>
   <rect x="91" y="277" width="56" height="32" rx="10"/>
   <rect x="89"
         y="275"
         width="56"
         height="32"
         class="terminal"
         rx="10"/>
   <text class="terminal" x="99" y="295">while</text>
   <a xmlns:xlink="http://www.w3.org/1999/xlink"
      xlink:href="#expression"
      xlink:title="expression">
      <rect x="167" y="277" width="90" height="32"/>
      <rect x="165" y="275" width="90" height="32" class="nonterminal"/>
      <text class="nonterminal" x="175" y="295">expression</text>
   </a>
   <rect x="91" y="321" width="38" height="32" rx="10"/>
   <rect x="89"
         y="319"
         width="38"
         height="32"
         class="terminal"
         rx="10"/>
   <text class="terminal" x="99" y="339">for</text>
   <a xmlns:xlink="http://www.w3.org/1999/xlink"
      xlink:href="#varid"
      xlink:title="varid">
      <rect x="149" y="321" width="52" height="32"/>
      <rect x="147" y="319" width="52" height="32" class="nonterminal"/>
      <text class="nonterminal" x="157" y="339">varid</text>
   </a>
   <rect x="221" y="321" width="34" height="32" rx="10"/>
   <rect x="219"
         y="319"
         width="34"
         height="32"
         class="terminal"
         rx="10"/>
   <text class="terminal" x="229" y="339">:=</text>
   <a xmlns:xlink="http://www.w3.org/1999/xlink"
      xlink:href="#for_list"
      xlink:title="for_list">
      <rect x="275" y="321" width="64" height="32"/>
      <rect x="273" y="319" width="64" height="32" class="nonterminal"/>
      <text class="nonterminal" x="283" y="339">for_list</text>
   </a>
   <rect x="91" y="409" width="50" height="32" rx="10"/>
   <rect x="89"
         y="407"
         width="50"
         height="32"
         class="terminal"
         rx="10"/>
   <text class="terminal" x="99" y="427">with</text>
   <a xmlns:xlink="http://www.w3.org/1999/xlink"
      xlink:href="#variable"
      xlink:title="variable">
      <rect x="181" y="409" width="70" height="32"/>
      <rect x="179" y="407" width="70" height="32" class="nonterminal"/>
      <text class="nonterminal" x="189" y="427">variable</text>
   </a>
   <rect x="181" y="365" width="24" height="32" rx="10"/>
   <rect x="179"
         y="363"
         width="24"
         height="32"
         class="terminal"
         rx="10"/>
   <text class="terminal" x="189" y="383">,</text>
   <rect x="379" y="277" width="36" height="32" rx="10"/>
   <rect x="377"
         y="275"
         width="36"
         height="32"
         class="terminal"
         rx="10"/>
   <text class="terminal" x="387" y="295">do</text>
   <a xmlns:xlink="http://www.w3.org/1999/xlink"
      xlink:href="#label"
      xlink:title="label">
      <rect x="71" y="453" width="50" height="32"/>
      <rect x="69" y="451" width="50" height="32" class="nonterminal"/>
      <text class="nonterminal" x="79" y="471">label</text>
   </a>
   <rect x="141" y="453" width="24" height="32" rx="10"/>
   <rect x="139"
         y="451"
         width="24"
         height="32"
         class="terminal"
         rx="10"/>
   <text class="terminal" x="149" y="471">:</text>
   <a xmlns:xlink="http://www.w3.org/1999/xlink"
      xlink:href="#statement"
      xlink:title="statement">
      <rect x="455" y="277" width="86" height="32"/>
      <rect x="453" y="275" width="86" height="32" class="nonterminal"/>
      <text class="nonterminal" x="463" y="295">statement</text>
   </a>
   <a xmlns:xlink="http://www.w3.org/1999/xlink"
      xlink:href="#procid"
      xlink:title="procid">
      <rect x="51" y="497" width="58" height="32"/>
      <rect x="49" y="495" width="58" height="32" class="nonterminal"/>
      <text class="nonterminal" x="59" y="515">procid</text>
   </a>
   <rect x="149" y="529" width="26" height="32" rx="10"/>
   <rect x="147"
         y="527"
         width="26"
         height="32"
         class="terminal"
         rx="10"/>
   <text class="terminal" x="157" y="547">(</text>
   <a xmlns:xlink="http://www.w3.org/1999/xlink"
      xlink:href="#expression_list"
      xlink:title="expression_list">
      <rect x="195" y="529" width="116" height="32"/>
      <rect x="193" y="527" width="116" height="32" class="nonterminal"/>
      <text class="nonterminal" x="203" y="547">expression_list</text>
   </a>
   <rect x="331" y="529" width="26" height="32" rx="10"/>
   <rect x="329"
         y="527"
         width="26"
         height="32"
         class="terminal"
         rx="10"/>
   <text class="terminal" x="339" y="547">)</text>
   <rect x="51" y="573" width="50" height="32" rx="10"/>
   <rect x="49"
         y="571"
         width="50"
         height="32"
         class="terminal"
         rx="10"/>
   <text class="terminal" x="59" y="591">goto</text>
   <a xmlns:xlink="http://www.w3.org/1999/xlink"
      xlink:href="#label"
      xlink:title="label">
      <rect x="121" y="573" width="50" height="32"/>
      <rect x="119" y="571" width="50" height="32" class="nonterminal"/>
      <text class="nonterminal" x="129" y="591">label</text>
   </a>
   <path class="line"
         d="m17 17 h2 m20 0 h10 m60 0 h10 m0 0 h568 m-668 0 h20 m648 0 h20 m-688 0 q10 0 10 10 m668 0 q0 -10 10 -10 m-678 10 v24 m668 0 v-24 m-668 24 q0 10 10 10 m648 0 q10 0 10 -10 m-638 10 h10 m70 0 h10 m0 0 h10 m34 0 h10 m0 0 h142 m-306 0 h20 m286 0 h20 m-326 0 q10 0 10 10 m306 0 q0 -10 10 -10 m-316 10 v24 m306 0 v-24 m-306 24 q0 10 10 10 m286 0 q10 0 10 -10 m-296 10 h10 m64 0 h10 m0 0 h10 m112 0 h10 m0 0 h10 m50 0 h10 m20 -44 h10 m90 0 h10 m0 0 h212 m-658 -10 v20 m668 0 v-20 m-668 20 v68 m668 0 v-68 m-668 68 q0 10 10 10 m648 0 q10 0 10 -10 m-638 10 h10 m56 0 h10 m0 0 h10 m112 0 h10 m0 0 h336 m-564 0 h20 m544 0 h20 m-584 0 q10 0 10 10 m564 0 q0 -10 10 -10 m-574 10 v46 m564 0 v-46 m-564 46 q0 10 10 10 m544 0 q10 0 10 -10 m-554 10 h10 m50 0 h10 m0 0 h10 m90 0 h10 m0 0 h10 m32 0 h10 m20 0 h10 m108 0 h10 m-148 0 l20 0 m-1 0 q-9 0 -9 -10 l0 -12 q0 -10 10 -10 m128 32 l20 0 m-20 0 q10 0 10 -10 l0 -12 q0 -10 -10 -10 m-128 0 h10 m0 0 h118 m40 32 h10 m0 0 h94 m-124 0 h20 m104 0 h20 m-144 0 q10 0 10 10 m124 0 q0 -10 10 -10 m-134 10 v12 m124 0 v-12 m-124 12 q0 10 10 10 m104 0 q10 0 10 -10 m-114 10 h10 m84 0 h10 m40 -98 h10 m44 0 h10 m-658 -10 v20 m668 0 v-20 m-668 20 v122 m668 0 v-122 m-668 122 q0 10 10 10 m648 0 q10 0 10 -10 m-618 10 h10 m56 0 h10 m0 0 h10 m90 0 h10 m0 0 h82 m-288 0 h20 m268 0 h20 m-308 0 q10 0 10 10 m288 0 q0 -10 10 -10 m-298 10 v24 m288 0 v-24 m-288 24 q0 10 10 10 m268 0 q10 0 10 -10 m-278 10 h10 m38 0 h10 m0 0 h10 m52 0 h10 m0 0 h10 m34 0 h10 m0 0 h10 m64 0 h10 m-278 -10 v20 m288 0 v-20 m-288 20 v68 m288 0 v-68 m-288 68 q0 10 10 10 m268 0 q10 0 10 -10 m-278 10 h10 m50 0 h10 m20 0 h10 m70 0 h10 m-110 0 l20 0 m-1 0 q-9 0 -9 -10 l0 -24 q0 -10 10 -10 m90 44 l20 0 m-20 0 q10 0 10 -10 l0 -24 q0 -10 -10 -10 m-90 0 h10 m24 0 h10 m0 0 h46 m20 44 h68 m20 -132 h10 m36 0 h10 m-384 0 h20 m364 0 h20 m-404 0 q10 0 10 10 m384 0 q0 -10 10 -10 m-394 10 v156 m384 0 v-156 m-384 156 q0 10 10 10 m364 0 q10 0 10 -10 m-374 10 h10 m50 0 h10 m0 0 h10 m24 0 h10 m0 0 h250 m20 -176 h10 m86 0 h10 m0 0 h138 m-658 -10 v20 m668 0 v-20 m-668 20 v200 m668 0 v-200 m-668 200 q0 10 10 10 m648 0 q10 0 10 -10 m-658 10 h10 m58 0 h10 m20 0 h10 m0 0 h218 m-248 0 h20 m228 0 h20 m-268 0 q10 0 10 10 m248 0 q0 -10 10 -10 m-258 10 v12 m248 0 v-12 m-248 12 q0 10 10 10 m228 0 q10 0 10 -10 m-238 10 h10 m26 0 h10 m0 0 h10 m116 0 h10 m0 0 h10 m26 0 h10 m20 -32 h302 m-658 -10 v20 m668 0 v-20 m-668 20 v56 m668 0 v-56 m-668 56 q0 10 10 10 m648 0 q10 0 10 -10 m-658 10 h10 m50 0 h10 m0 0 h10 m50 0 h10 m0 0 h508 m23 -570 h-3"/>
   <polygon points="717 17 725 13 725 21"/>
   <polygon points="717 17 709 13 709 21"/>
</svg>
