<?xml version="1.0" encoding="UTF-8"?>
<svg xmlns="http://www.w3.org/2000/svg" width="731" height="301">
   <defs>
      <style type="text/css">
    @namespace "http://www.w3.org/2000/svg";
    .line                 {fill: none; stroke: #332200; stroke-width: 1;}
    .bold-line            {stroke: #140E00; shape-rendering: crispEdges; stroke-width: 2;}
    .thin-line            {stroke: #1F1400; shape-rendering: crispEdges}
    .filled               {fill: #332200; stroke: none;}
    text.terminal         {font-family: Verdana, Sans-serif;
                            font-size: 12px;
                            fill: #140E00;
                            font-weight: bold;
                          }
    text.nonterminal      {font-family: Verdana, Sans-serif;
                            font-size: 12px;
                            fill: #1A1100;
                            font-weight: normal;
                          }
    text.regexp           {font-family: Verdana, Sans-serif;
                            font-size: 12px;
                            fill: #1F1400;
                            font-weight: normal;
                          }
    rect, circle, polygon {fill: #332200; stroke: #332200;}
    rect.terminal         {fill: #FFC34D; stroke: #332200; stroke-width: 1;}
    rect.nonterminal      {fill: #FFDF9E; stroke: #332200; stroke-width: 1;}
    rect.text             {fill: none; stroke: none;}
    polygon.regexp        {fill: #FFECC7; stroke: #332200; stroke-width: 1;}
  </style>
   </defs>
   <polygon points="9 61 1 57 1 65"/>
   <polygon points="17 61 9 57 9 65"/>
   <rect x="71" y="13" width="68" height="32" rx="10"/>
   <rect x="69"
         y="11"
         width="68"
         height="32"
         class="terminal"
         rx="10"/>
   <text class="terminal" x="79" y="31">packed</text>
   <rect x="219" y="47" width="56" height="32" rx="10"/>
   <rect x="217"
         y="45"
         width="56"
         height="32"
         class="terminal"
         rx="10"/>
   <text class="terminal" x="227" y="65">array</text>
   <rect x="295" y="47" width="26" height="32" rx="10"/>
   <rect x="293"
         y="45"
         width="26"
         height="32"
         class="terminal"
         rx="10"/>
   <text class="terminal" x="303" y="65">[</text>
   <a xmlns:xlink="http://www.w3.org/1999/xlink"
      xlink:href="#simple_type"
      xlink:title="simple_type">
      <rect x="361" y="47" width="96" height="32"/>
      <rect x="359" y="45" width="96" height="32" class="nonterminal"/>
      <text class="nonterminal" x="369" y="65">simple_type</text>
   </a>
   <rect x="361" y="3" width="24" height="32" rx="10"/>
   <rect x="359"
         y="1"
         width="24"
         height="32"
         class="terminal"
         rx="10"/>
   <text class="terminal" x="369" y="21">,</text>
   <rect x="497" y="47" width="26" height="32" rx="10"/>
   <rect x="495"
         y="45"
         width="26"
         height="32"
         class="terminal"
         rx="10"/>
   <text class="terminal" x="505" y="65">]</text>
   <rect x="219" y="91" width="40" height="32" rx="10"/>
   <rect x="217"
         y="89"
         width="40"
         height="32"
         class="terminal"
         rx="10"/>
   <text class="terminal" x="227" y="109">file</text>
   <rect x="563" y="47" width="32" height="32" rx="10"/>
   <rect x="561"
         y="45"
         width="32"
         height="32"
         class="terminal"
         rx="10"/>
   <text class="terminal" x="571" y="65">of</text>
   <a xmlns:xlink="http://www.w3.org/1999/xlink"
      xlink:href="#type"
      xlink:title="type">
      <rect x="615" y="47" width="48" height="32"/>
      <rect x="613" y="45" width="48" height="32" class="nonterminal"/>
      <text class="nonterminal" x="623" y="65">type</text>
   </a>
   <rect x="199" y="135" width="64" height="32" rx="10"/>
   <rect x="197"
         y="133"
         width="64"
         height="32"
         class="terminal"
         rx="10"/>
   <text class="terminal" x="207" y="153">record</text>
   <a xmlns:xlink="http://www.w3.org/1999/xlink"
      xlink:href="#field_list"
      xlink:title="field_list">
      <rect x="283" y="135" width="72" height="32"/>
      <rect x="281" y="133" width="72" height="32" class="nonterminal"/>
      <text class="nonterminal" x="291" y="153">field_list</text>
   </a>
   <rect x="375" y="135" width="44" height="32" rx="10"/>
   <rect x="373"
         y="133"
         width="44"
         height="32"
         class="terminal"
         rx="10"/>
   <text class="terminal" x="383" y="153">end</text>
   <rect x="199" y="179" width="40" height="32" rx="10"/>
   <rect x="197"
         y="177"
         width="40"
         height="32"
         class="terminal"
         rx="10"/>
   <text class="terminal" x="207" y="197">set</text>
   <rect x="259" y="179" width="32" height="32" rx="10"/>
   <rect x="257"
         y="177"
         width="32"
         height="32"
         class="terminal"
         rx="10"/>
   <text class="terminal" x="267" y="197">of</text>
   <a xmlns:xlink="http://www.w3.org/1999/xlink"
      xlink:href="#simple_type"
      xlink:title="simple_type">
      <rect x="311" y="179" width="96" height="32"/>
      <rect x="309" y="177" width="96" height="32" class="nonterminal"/>
      <text class="nonterminal" x="319" y="197">simple_type</text>
   </a>
   <a xmlns:xlink="http://www.w3.org/1999/xlink"
      xlink:href="#simple_type"
      xlink:title="simple_type">
      <rect x="51" y="223" width="96" height="32"/>
      <rect x="49" y="221" width="96" height="32" class="nonterminal"/>
      <text class="nonterminal" x="59" y="241">simple_type</text>
   </a>
   <rect x="51" y="267" width="30" height="32" rx="10"/>
   <rect x="49"
         y="265"
         width="30"
         height="32"
         class="terminal"
         rx="10"/>
   <text class="terminal" x="59" y="285">^</text>
   <a xmlns:xlink="http://www.w3.org/1999/xlink"
      xlink:href="#typeid"
      xlink:title="typeid">
      <rect x="101" y="267" width="58" height="32"/>
      <rect x="99" y="265" width="58" height="32" class="nonterminal"/>
      <text class="nonterminal" x="109" y="285">typeid</text>
   </a>
   <path class="line"
         d="m17 61 h2 m40 0 h10 m0 0 h78 m-108 0 l20 0 m-1 0 q-9 0 -9 -10 l0 -14 q0 -10 10 -10 m88 34 l20 0 m-20 0 q10 0 10 -10 l0 -14 q0 -10 -10 -10 m-88 0 h10 m68 0 h10 m60 34 h10 m56 0 h10 m0 0 h10 m26 0 h10 m20 0 h10 m96 0 h10 m-136 0 l20 0 m-1 0 q-9 0 -9 -10 l0 -24 q0 -10 10 -10 m116 44 l20 0 m-20 0 q10 0 10 -10 l0 -24 q0 -10 -10 -10 m-116 0 h10 m24 0 h10 m0 0 h72 m20 44 h10 m26 0 h10 m-344 0 h20 m324 0 h20 m-364 0 q10 0 10 10 m344 0 q0 -10 10 -10 m-354 10 v24 m344 0 v-24 m-344 24 q0 10 10 10 m324 0 q10 0 10 -10 m-334 10 h10 m40 0 h10 m0 0 h264 m20 -44 h10 m32 0 h10 m0 0 h10 m48 0 h10 m-504 0 h20 m484 0 h20 m-524 0 q10 0 10 10 m504 0 q0 -10 10 -10 m-514 10 v68 m504 0 v-68 m-504 68 q0 10 10 10 m484 0 q10 0 10 -10 m-494 10 h10 m64 0 h10 m0 0 h10 m72 0 h10 m0 0 h10 m44 0 h10 m0 0 h244 m-494 -10 v20 m504 0 v-20 m-504 20 v24 m504 0 v-24 m-504 24 q0 10 10 10 m484 0 q10 0 10 -10 m-494 10 h10 m40 0 h10 m0 0 h10 m32 0 h10 m0 0 h10 m96 0 h10 m0 0 h256 m-652 -132 h20 m652 0 h20 m-692 0 q10 0 10 10 m672 0 q0 -10 10 -10 m-682 10 v156 m672 0 v-156 m-672 156 q0 10 10 10 m652 0 q10 0 10 -10 m-662 10 h10 m96 0 h10 m0 0 h536 m-662 -10 v20 m672 0 v-20 m-672 20 v24 m672 0 v-24 m-672 24 q0 10 10 10 m652 0 q10 0 10 -10 m-662 10 h10 m30 0 h10 m0 0 h10 m58 0 h10 m0 0 h524 m23 -220 h-3"/>
   <polygon points="721 61 729 57 729 65"/>
   <polygon points="721 61 713 57 713 65"/>
</svg>
