<?xml version="1.0" encoding="UTF-8"?>
<svg xmlns="http://www.w3.org/2000/svg" width="345" height="71">
   <defs>
      <style type="text/css">
    @namespace "http://www.w3.org/2000/svg";
    .line                 {fill: none; stroke: #332200; stroke-width: 1;}
    .bold-line            {stroke: #140E00; shape-rendering: crispEdges; stroke-width: 2;}
    .thin-line            {stroke: #1F1400; shape-rendering: crispEdges}
    .filled               {fill: #332200; stroke: none;}
    text.terminal         {font-family: Verdana, Sans-serif;
                            font-size: 12px;
                            fill: #140E00;
                            font-weight: bold;
                          }
    text.nonterminal      {font-family: Verdana, Sans-serif;
                            font-size: 12px;
                            fill: #1A1100;
                            font-weight: normal;
                          }
    text.regexp           {font-family: Verdana, Sans-serif;
                            font-size: 12px;
                            fill: #1F1400;
                            font-weight: normal;
                          }
    rect, circle, polygon {fill: #332200; stroke: #332200;}
    rect.terminal         {fill: #FFC34D; stroke: #332200; stroke-width: 1;}
    rect.nonterminal      {fill: #FFDF9E; stroke: #332200; stroke-width: 1;}
    rect.text             {fill: none; stroke: none;}
    polygon.regexp        {fill: #FFECC7; stroke: #332200; stroke-width: 1;}
  </style>
   </defs>
   <polygon points="9 51 1 47 1 55"/>
   <polygon points="17 51 9 47 9 55"/>
   <a xmlns:xlink="http://www.w3.org/1999/xlink"
      xlink:href="#unary_op"
      xlink:title="unary_op">
      <rect x="51" y="3" width="80" height="32"/>
      <rect x="49" y="1" width="80" height="32" class="nonterminal"/>
      <text class="nonterminal" x="59" y="21">unary_op</text>
   </a>
   <a xmlns:xlink="http://www.w3.org/1999/xlink"
      xlink:href="#primary_expression"
      xlink:title="primary_expression">
      <rect x="171" y="37" width="146" height="32"/>
      <rect x="169" y="35" width="146" height="32" class="nonterminal"/>
      <text class="nonterminal" x="179" y="55">primary_expression</text>
   </a>
   <path class="line"
         d="m17 51 h2 m20 0 h10 m0 0 h90 m-120 0 l20 0 m-1 0 q-9 0 -9 -10 l0 -14 q0 -10 10 -10 m100 34 l20 0 m-20 0 q10 0 10 -10 l0 -14 q0 -10 -10 -10 m-100 0 h10 m80 0 h10 m20 34 h10 m146 0 h10 m3 0 h-3"/>
   <polygon points="335 51 343 47 343 55"/>
   <polygon points="335 51 327 47 327 55"/>
</svg>
