<?xml version="1.0" encoding="UTF-8"?>
<svg xmlns="http://www.w3.org/2000/svg" width="497" height="201">
   <defs>
      <style type="text/css">
    @namespace "http://www.w3.org/2000/svg";
    .line                 {fill: none; stroke: #332200; stroke-width: 1;}
    .bold-line            {stroke: #140E00; shape-rendering: crispEdges; stroke-width: 2;}
    .thin-line            {stroke: #1F1400; shape-rendering: crispEdges}
    .filled               {fill: #332200; stroke: none;}
    text.terminal         {font-family: Verdana, Sans-serif;
                            font-size: 12px;
                            fill: #140E00;
                            font-weight: bold;
                          }
    text.nonterminal      {font-family: Verdana, Sans-serif;
                            font-size: 12px;
                            fill: #1A1100;
                            font-weight: normal;
                          }
    text.regexp           {font-family: Verdana, Sans-serif;
                            font-size: 12px;
                            fill: #1F1400;
                            font-weight: normal;
                          }
    rect, circle, polygon {fill: #332200; stroke: #332200;}
    rect.terminal         {fill: #FFC34D; stroke: #332200; stroke-width: 1;}
    rect.nonterminal      {fill: #FFDF9E; stroke: #332200; stroke-width: 1;}
    rect.text             {fill: none; stroke: none;}
    polygon.regexp        {fill: #FFECC7; stroke: #332200; stroke-width: 1;}
  </style>
   </defs>
   <polygon points="9 77 1 73 1 81"/>
   <polygon points="17 77 9 73 9 81"/>
   <a xmlns:xlink="http://www.w3.org/1999/xlink"
      xlink:href="#identifier"
      xlink:title="identifier">
      <rect x="31" y="63" width="76" height="32"/>
      <rect x="29" y="61" width="76" height="32" class="nonterminal"/>
      <text class="nonterminal" x="39" y="81">identifier</text>
   </a>
   <rect x="187" y="63" width="26" height="32" rx="10"/>
   <rect x="185"
         y="61"
         width="26"
         height="32"
         class="terminal"
         rx="10"/>
   <text class="terminal" x="195" y="81">[</text>
   <a xmlns:xlink="http://www.w3.org/1999/xlink"
      xlink:href="#expression"
      xlink:title="expression">
      <rect x="253" y="63" width="90" height="32"/>
      <rect x="251" y="61" width="90" height="32" class="nonterminal"/>
      <text class="nonterminal" x="261" y="81">expression</text>
   </a>
   <rect x="253" y="19" width="24" height="32" rx="10"/>
   <rect x="251"
         y="17"
         width="24"
         height="32"
         class="terminal"
         rx="10"/>
   <text class="terminal" x="261" y="37">,</text>
   <rect x="383" y="63" width="26" height="32" rx="10"/>
   <rect x="381"
         y="61"
         width="26"
         height="32"
         class="terminal"
         rx="10"/>
   <text class="terminal" x="391" y="81">]</text>
   <rect x="187" y="107" width="24" height="32" rx="10"/>
   <rect x="185"
         y="105"
         width="24"
         height="32"
         class="terminal"
         rx="10"/>
   <text class="terminal" x="195" y="125">.</text>
   <a xmlns:xlink="http://www.w3.org/1999/xlink"
      xlink:href="#fieldid"
      xlink:title="fieldid">
      <rect x="231" y="107" width="58" height="32"/>
      <rect x="229" y="105" width="58" height="32" class="nonterminal"/>
      <text class="nonterminal" x="239" y="125">fieldid</text>
   </a>
   <rect x="187" y="151" width="30" height="32" rx="10"/>
   <rect x="185"
         y="149"
         width="30"
         height="32"
         class="terminal"
         rx="10"/>
   <text class="terminal" x="195" y="169">^</text>
   <path class="line"
         d="m17 77 h2 m0 0 h10 m76 0 h10 m60 0 h10 m26 0 h10 m20 0 h10 m90 0 h10 m-130 0 l20 0 m-1 0 q-9 0 -9 -10 l0 -24 q0 -10 10 -10 m110 44 l20 0 m-20 0 q10 0 10 -10 l0 -24 q0 -10 -10 -10 m-110 0 h10 m24 0 h10 m0 0 h66 m20 44 h10 m26 0 h10 m-262 0 h20 m242 0 h20 m-282 0 q10 0 10 10 m262 0 q0 -10 10 -10 m-272 10 v24 m262 0 v-24 m-262 24 q0 10 10 10 m242 0 q10 0 10 -10 m-252 10 h10 m24 0 h10 m0 0 h10 m58 0 h10 m0 0 h120 m-252 -10 v20 m262 0 v-20 m-262 20 v24 m262 0 v-24 m-262 24 q0 10 10 10 m242 0 q10 0 10 -10 m-252 10 h10 m30 0 h10 m0 0 h192 m-282 -88 l20 0 m-1 0 q-9 0 -9 -10 l0 -56 q0 -10 10 -10 m282 76 l20 0 m-20 0 q10 0 10 -10 l0 -56 q0 -10 -10 -10 m-282 0 h10 m0 0 h272 m-322 76 h20 m322 0 h20 m-362 0 q10 0 10 10 m342 0 q0 -10 10 -10 m-352 10 v102 m342 0 v-102 m-342 102 q0 10 10 10 m322 0 q10 0 10 -10 m-332 10 h10 m0 0 h312 m23 -122 h-3"/>
   <polygon points="487 77 495 73 495 81"/>
   <polygon points="487 77 479 73 479 81"/>
</svg>
