<?xml version="1.0" encoding="UTF-8"?>
<svg xmlns="http://www.w3.org/2000/svg" width="527" height="69">
   <defs>
      <style type="text/css">
    @namespace "http://www.w3.org/2000/svg";
    .line                 {fill: none; stroke: #332200; stroke-width: 1;}
    .bold-line            {stroke: #140E00; shape-rendering: crispEdges; stroke-width: 2;}
    .thin-line            {stroke: #1F1400; shape-rendering: crispEdges}
    .filled               {fill: #332200; stroke: none;}
    text.terminal         {font-family: Verdana, Sans-serif;
                            font-size: 12px;
                            fill: #140E00;
                            font-weight: bold;
                          }
    text.nonterminal      {font-family: Verdana, Sans-serif;
                            font-size: 12px;
                            fill: #1A1100;
                            font-weight: normal;
                          }
    text.regexp           {font-family: Verdana, Sans-serif;
                            font-size: 12px;
                            fill: #1F1400;
                            font-weight: normal;
                          }
    rect, circle, polygon {fill: #332200; stroke: #332200;}
    rect.terminal         {fill: #FFC34D; stroke: #332200; stroke-width: 1;}
    rect.nonterminal      {fill: #FFDF9E; stroke: #332200; stroke-width: 1;}
    rect.text             {fill: none; stroke: none;}
    polygon.regexp        {fill: #FFECC7; stroke: #332200; stroke-width: 1;}
  </style>
   </defs>
   <polygon points="9 33 1 29 1 37"/>
   <polygon points="17 33 9 29 9 37"/>
   <rect x="51" y="19" width="50" height="32" rx="10"/>
   <rect x="49"
         y="17"
         width="50"
         height="32"
         class="terminal"
         rx="10"/>
   <text class="terminal" x="59" y="37">type</text>
   <a xmlns:xlink="http://www.w3.org/1999/xlink"
      xlink:href="#identifier"
      xlink:title="identifier">
      <rect x="141" y="19" width="76" height="32"/>
      <rect x="139" y="17" width="76" height="32" class="nonterminal"/>
      <text class="nonterminal" x="149" y="37">identifier</text>
   </a>
   <rect x="237" y="19" width="30" height="32" rx="10"/>
   <rect x="235"
         y="17"
         width="30"
         height="32"
         class="terminal"
         rx="10"/>
   <text class="terminal" x="245" y="37">=</text>
   <a xmlns:xlink="http://www.w3.org/1999/xlink"
      xlink:href="#type"
      xlink:title="type">
      <rect x="287" y="19" width="48" height="32"/>
      <rect x="285" y="17" width="48" height="32" class="nonterminal"/>
      <text class="nonterminal" x="295" y="37">type</text>
   </a>
   <rect x="355" y="19" width="24" height="32" rx="10"/>
   <rect x="353"
         y="17"
         width="24"
         height="32"
         class="terminal"
         rx="10"/>
   <text class="terminal" x="363" y="37">;</text>
   <a xmlns:xlink="http://www.w3.org/1999/xlink"
      xlink:href="#block3"
      xlink:title="block3">
      <rect x="439" y="19" width="60" height="32"/>
      <rect x="437" y="17" width="60" height="32" class="nonterminal"/>
      <text class="nonterminal" x="447" y="37">block3</text>
   </a>
   <path class="line"
         d="m17 33 h2 m20 0 h10 m50 0 h10 m20 0 h10 m76 0 h10 m0 0 h10 m30 0 h10 m0 0 h10 m48 0 h10 m0 0 h10 m24 0 h10 m-278 0 l20 0 m-1 0 q-9 0 -9 -10 l0 -12 q0 -10 10 -10 m258 32 l20 0 m-20 0 q10 0 10 -10 l0 -12 q0 -10 -10 -10 m-258 0 h10 m0 0 h248 m-368 32 h20 m368 0 h20 m-408 0 q10 0 10 10 m388 0 q0 -10 10 -10 m-398 10 v14 m388 0 v-14 m-388 14 q0 10 10 10 m368 0 q10 0 10 -10 m-378 10 h10 m0 0 h358 m20 -34 h10 m60 0 h10 m3 0 h-3"/>
   <polygon points="517 33 525 29 525 37"/>
   <polygon points="517 33 509 29 509 37"/>
</svg>
