<?xml version="1.0" encoding="UTF-8"?>
<svg xmlns="http://www.w3.org/2000/svg" width="467" height="97">
   <defs>
      <style type="text/css">
    @namespace "http://www.w3.org/2000/svg";
    .line                 {fill: none; stroke: #332200; stroke-width: 1;}
    .bold-line            {stroke: #140E00; shape-rendering: crispEdges; stroke-width: 2;}
    .thin-line            {stroke: #1F1400; shape-rendering: crispEdges}
    .filled               {fill: #332200; stroke: none;}
    text.terminal         {font-family: Verdana, Sans-serif;
                            font-size: 12px;
                            fill: #140E00;
                            font-weight: bold;
                          }
    text.nonterminal      {font-family: Verdana, Sans-serif;
                            font-size: 12px;
                            fill: #1A1100;
                            font-weight: normal;
                          }
    text.regexp           {font-family: Verdana, Sans-serif;
                            font-size: 12px;
                            fill: #1F1400;
                            font-weight: normal;
                          }
    rect, circle, polygon {fill: #332200; stroke: #332200;}
    rect.terminal         {fill: #FFC34D; stroke: #332200; stroke-width: 1;}
    rect.nonterminal      {fill: #FFDF9E; stroke: #332200; stroke-width: 1;}
    rect.text             {fill: none; stroke: none;}
    polygon.regexp        {fill: #FFECC7; stroke: #332200; stroke-width: 1;}
  </style>
   </defs>
   <polygon points="9 61 1 57 1 65"/>
   <polygon points="17 61 9 57 9 65"/>
   <rect x="51" y="47" width="52" height="32" rx="10"/>
   <rect x="49"
         y="45"
         width="52"
         height="32"
         class="terminal"
         rx="10"/>
   <text class="terminal" x="59" y="65">label</text>
   <a xmlns:xlink="http://www.w3.org/1999/xlink"
      xlink:href="#unsigned_integer"
      xlink:title="unsigned_integer">
      <rect x="143" y="47" width="132" height="32"/>
      <rect x="141" y="45" width="132" height="32" class="nonterminal"/>
      <text class="nonterminal" x="151" y="65">unsigned_integer</text>
   </a>
   <rect x="143" y="3" width="24" height="32" rx="10"/>
   <rect x="141"
         y="1"
         width="24"
         height="32"
         class="terminal"
         rx="10"/>
   <text class="terminal" x="151" y="21">,</text>
   <rect x="315" y="47" width="24" height="32" rx="10"/>
   <rect x="313"
         y="45"
         width="24"
         height="32"
         class="terminal"
         rx="10"/>
   <text class="terminal" x="323" y="65">;</text>
   <a xmlns:xlink="http://www.w3.org/1999/xlink"
      xlink:href="#block1"
      xlink:title="block1">
      <rect x="379" y="47" width="60" height="32"/>
      <rect x="377" y="45" width="60" height="32" class="nonterminal"/>
      <text class="nonterminal" x="387" y="65">block1</text>
   </a>
   <path class="line"
         d="m17 61 h2 m20 0 h10 m52 0 h10 m20 0 h10 m132 0 h10 m-172 0 l20 0 m-1 0 q-9 0 -9 -10 l0 -24 q0 -10 10 -10 m152 44 l20 0 m-20 0 q10 0 10 -10 l0 -24 q0 -10 -10 -10 m-152 0 h10 m24 0 h10 m0 0 h108 m20 44 h10 m24 0 h10 m-328 0 h20 m308 0 h20 m-348 0 q10 0 10 10 m328 0 q0 -10 10 -10 m-338 10 v14 m328 0 v-14 m-328 14 q0 10 10 10 m308 0 q10 0 10 -10 m-318 10 h10 m0 0 h298 m20 -34 h10 m60 0 h10 m3 0 h-3"/>
   <polygon points="457 61 465 57 465 65"/>
   <polygon points="457 61 449 57 449 65"/>
</svg>
