<?xml version="1.0" encoding="UTF-8"?>
<svg xmlns="http://www.w3.org/2000/svg" width="459" height="125">
   <defs>
      <style type="text/css">
    @namespace "http://www.w3.org/2000/svg";
    .line                 {fill: none; stroke: #332200; stroke-width: 1;}
    .bold-line            {stroke: #140E00; shape-rendering: crispEdges; stroke-width: 2;}
    .thin-line            {stroke: #1F1400; shape-rendering: crispEdges}
    .filled               {fill: #332200; stroke: none;}
    text.terminal         {font-family: Verdana, Sans-serif;
                            font-size: 12px;
                            fill: #140E00;
                            font-weight: bold;
                          }
    text.nonterminal      {font-family: Verdana, Sans-serif;
                            font-size: 12px;
                            fill: #1A1100;
                            font-weight: normal;
                          }
    text.regexp           {font-family: Verdana, Sans-serif;
                            font-size: 12px;
                            fill: #1F1400;
                            font-weight: normal;
                          }
    rect, circle, polygon {fill: #332200; stroke: #332200;}
    rect.terminal         {fill: #FFC34D; stroke: #332200; stroke-width: 1;}
    rect.nonterminal      {fill: #FFDF9E; stroke: #332200; stroke-width: 1;}
    rect.text             {fill: none; stroke: none;}
    polygon.regexp        {fill: #FFECC7; stroke: #332200; stroke-width: 1;}
  </style>
   </defs>
   <polygon points="9 17 1 13 1 21"/>
   <polygon points="17 17 9 13 9 21"/>
   <a xmlns:xlink="http://www.w3.org/1999/xlink"
      xlink:href="#matched_statement"
      xlink:title="matched_statement">
      <rect x="51" y="3" width="148" height="32"/>
      <rect x="49" y="1" width="148" height="32" class="nonterminal"/>
      <text class="nonterminal" x="59" y="21">matched_statement</text>
   </a>
   <rect x="71" y="91" width="28" height="32" rx="10"/>
   <rect x="69"
         y="89"
         width="28"
         height="32"
         class="terminal"
         rx="10"/>
   <text class="terminal" x="79" y="109">if</text>
   <a xmlns:xlink="http://www.w3.org/1999/xlink"
      xlink:href="#expression"
      xlink:title="expression">
      <rect x="119" y="91" width="90" height="32"/>
      <rect x="117" y="89" width="90" height="32" class="nonterminal"/>
      <text class="nonterminal" x="127" y="109">expression</text>
   </a>
   <rect x="229" y="91" width="50" height="32" rx="10"/>
   <rect x="227"
         y="89"
         width="50"
         height="32"
         class="terminal"
         rx="10"/>
   <text class="terminal" x="237" y="109">then</text>
   <rect x="71" y="47" width="46" height="32" rx="10"/>
   <rect x="69"
         y="45"
         width="46"
         height="32"
         class="terminal"
         rx="10"/>
   <text class="terminal" x="79" y="65">else</text>
   <a xmlns:xlink="http://www.w3.org/1999/xlink"
      xlink:href="#matched_statement"
      xlink:title="matched_statement">
      <rect x="137" y="47" width="148" height="32"/>
      <rect x="135" y="45" width="148" height="32" class="nonterminal"/>
      <text class="nonterminal" x="145" y="65">matched_statement</text>
   </a>
   <a xmlns:xlink="http://www.w3.org/1999/xlink"
      xlink:href="#statement"
      xlink:title="statement">
      <rect x="325" y="91" width="86" height="32"/>
      <rect x="323" y="89" width="86" height="32" class="nonterminal"/>
      <text class="nonterminal" x="333" y="109">statement</text>
   </a>
   <path class="line"
         d="m17 17 h2 m20 0 h10 m148 0 h10 m0 0 h212 m-400 0 h20 m380 0 h20 m-420 0 q10 0 10 10 m400 0 q0 -10 10 -10 m-410 10 v68 m400 0 v-68 m-400 68 q0 10 10 10 m380 0 q10 0 10 -10 m-370 10 h10 m28 0 h10 m0 0 h10 m90 0 h10 m0 0 h10 m50 0 h10 m0 0 h6 m-254 0 l20 0 m-1 0 q-9 0 -9 -10 l0 -24 q0 -10 10 -10 m234 44 l20 0 m-20 0 q10 0 10 -10 l0 -24 q0 -10 -10 -10 m-234 0 h10 m46 0 h10 m0 0 h10 m148 0 h10 m20 44 h10 m86 0 h10 m23 -88 h-3"/>
   <polygon points="449 17 457 13 457 21"/>
   <polygon points="449 17 441 13 441 21"/>
</svg>
