<?xml version="1.0" encoding="UTF-8"?>
<svg xmlns="http://www.w3.org/2000/svg" width="141" height="125">
   <defs>
      <style type="text/css">
    @namespace "http://www.w3.org/2000/svg";
    .line                 {fill: none; stroke: #332200; stroke-width: 1;}
    .bold-line            {stroke: #140E00; shape-rendering: crispEdges; stroke-width: 2;}
    .thin-line            {stroke: #1F1400; shape-rendering: crispEdges}
    .filled               {fill: #332200; stroke: none;}
    text.terminal         {font-family: Verdana, Sans-serif;
                            font-size: 12px;
                            fill: #140E00;
                            font-weight: bold;
                          }
    text.nonterminal      {font-family: Verdana, Sans-serif;
                            font-size: 12px;
                            fill: #1A1100;
                            font-weight: normal;
                          }
    text.regexp           {font-family: Verdana, Sans-serif;
                            font-size: 12px;
                            fill: #1F1400;
                            font-weight: normal;
                          }
    rect, circle, polygon {fill: #332200; stroke: #332200;}
    rect.terminal         {fill: #FFC34D; stroke: #332200; stroke-width: 1;}
    rect.nonterminal      {fill: #FFDF9E; stroke: #332200; stroke-width: 1;}
    rect.text             {fill: none; stroke: none;}
    polygon.regexp        {fill: #FFECC7; stroke: #332200; stroke-width: 1;}
  </style>
   </defs>
   <polygon points="9 17 1 13 1 21"/>
   <polygon points="17 17 9 13 9 21"/>
   <rect x="51" y="3" width="30" height="32" rx="10"/>
   <rect x="49"
         y="1"
         width="30"
         height="32"
         class="terminal"
         rx="10"/>
   <text class="terminal" x="59" y="21">+</text>
   <rect x="51" y="47" width="26" height="32" rx="10"/>
   <rect x="49"
         y="45"
         width="26"
         height="32"
         class="terminal"
         rx="10"/>
   <text class="terminal" x="59" y="65">-</text>
   <rect x="51" y="91" width="42" height="32" rx="10"/>
   <rect x="49"
         y="89"
         width="42"
         height="32"
         class="terminal"
         rx="10"/>
   <text class="terminal" x="59" y="109">not</text>
   <path class="line"
         d="m17 17 h2 m20 0 h10 m30 0 h10 m0 0 h12 m-82 0 h20 m62 0 h20 m-102 0 q10 0 10 10 m82 0 q0 -10 10 -10 m-92 10 v24 m82 0 v-24 m-82 24 q0 10 10 10 m62 0 q10 0 10 -10 m-72 10 h10 m26 0 h10 m0 0 h16 m-72 -10 v20 m82 0 v-20 m-82 20 v24 m82 0 v-24 m-82 24 q0 10 10 10 m62 0 q10 0 10 -10 m-72 10 h10 m42 0 h10 m23 -88 h-3"/>
   <polygon points="131 17 139 13 139 21"/>
   <polygon points="131 17 123 13 123 21"/>
</svg>
